<mxfile host="app.diagrams.net" modified="2021-11-01T03:31:08.825Z" agent="5.0 (Macintosh; Intel Mac OS X 10_13_6) AppleWebKit/537.36 (KHTML, like Gecko) Chrome/94.0.4606.54 Safari/537.36" etag="DPssU7bxsa109oF7B5QJ" version="15.6.3" type="github">
  <diagram id="AYHLa6kDJ4-crN3OEuM6" name="Page-1">
    <mxGraphModel dx="2301" dy="1769" grid="1" gridSize="10" guides="1" tooltips="1" connect="1" arrows="1" fold="1" page="1" pageScale="1" pageWidth="827" pageHeight="1169" math="0" shadow="0">
      <root>
        <mxCell id="0" />
        <mxCell id="1" parent="0" />
        <mxCell id="rasIPgpJ51-KkkW6Vn-_-1" value="di-galaxy" style="rounded=0;whiteSpace=wrap;html=1;" parent="1" vertex="1">
          <mxGeometry x="90" y="290" width="130" height="50" as="geometry" />
        </mxCell>
        <mxCell id="rasIPgpJ51-KkkW6Vn-_-3" value="同步ES任务" style="rounded=0;whiteSpace=wrap;html=1;" parent="1" vertex="1">
          <mxGeometry x="320" y="245" width="130" height="50" as="geometry" />
        </mxCell>
        <mxCell id="rasIPgpJ51-KkkW6Vn-_-7" value="同步TIDB任务" style="rounded=0;whiteSpace=wrap;html=1;" parent="1" vertex="1">
          <mxGeometry x="320" y="345" width="130" height="50" as="geometry" />
        </mxCell>
        <mxCell id="rasIPgpJ51-KkkW6Vn-_-8" value="galaxy服务" style="rounded=1;whiteSpace=wrap;html=1;" parent="1" vertex="1">
          <mxGeometry x="700" y="290" width="120" height="60" as="geometry" />
        </mxCell>
        <mxCell id="rasIPgpJ51-KkkW6Vn-_-9" value="" style="endArrow=classic;html=1;entryX=0;entryY=0.5;entryDx=0;entryDy=0;exitX=1;exitY=0.5;exitDx=0;exitDy=0;" parent="1" source="rasIPgpJ51-KkkW6Vn-_-1" target="rasIPgpJ51-KkkW6Vn-_-3" edge="1">
          <mxGeometry width="50" height="50" relative="1" as="geometry">
            <mxPoint x="210" y="435" as="sourcePoint" />
            <mxPoint x="260" y="385" as="targetPoint" />
          </mxGeometry>
        </mxCell>
        <mxCell id="rasIPgpJ51-KkkW6Vn-_-13" value="创建" style="edgeLabel;html=1;align=center;verticalAlign=middle;resizable=0;points=[];" parent="rasIPgpJ51-KkkW6Vn-_-9" vertex="1" connectable="0">
          <mxGeometry x="-0.0478" y="4" relative="1" as="geometry">
            <mxPoint as="offset" />
          </mxGeometry>
        </mxCell>
        <mxCell id="rasIPgpJ51-KkkW6Vn-_-10" value="" style="endArrow=classic;html=1;entryX=0;entryY=0.5;entryDx=0;entryDy=0;exitX=1;exitY=0.5;exitDx=0;exitDy=0;" parent="1" source="rasIPgpJ51-KkkW6Vn-_-1" target="rasIPgpJ51-KkkW6Vn-_-7" edge="1">
          <mxGeometry width="50" height="50" relative="1" as="geometry">
            <mxPoint x="209" y="310" as="sourcePoint" />
            <mxPoint x="300" y="385" as="targetPoint" />
          </mxGeometry>
        </mxCell>
        <mxCell id="rasIPgpJ51-KkkW6Vn-_-14" value="创建" style="edgeLabel;html=1;align=center;verticalAlign=middle;resizable=0;points=[];" parent="rasIPgpJ51-KkkW6Vn-_-10" vertex="1" connectable="0">
          <mxGeometry x="-0.0741" y="-1" relative="1" as="geometry">
            <mxPoint as="offset" />
          </mxGeometry>
        </mxCell>
        <mxCell id="rasIPgpJ51-KkkW6Vn-_-19" value="&lt;span&gt;同步ES任务&lt;/span&gt;" style="rounded=1;whiteSpace=wrap;html=1;" parent="1" vertex="1">
          <mxGeometry x="1040" y="90" width="120" height="50" as="geometry" />
        </mxCell>
        <mxCell id="rasIPgpJ51-KkkW6Vn-_-20" value="存量数据" style="rounded=0;whiteSpace=wrap;html=1;" parent="1" vertex="1">
          <mxGeometry x="1240" y="30" width="120" height="40" as="geometry" />
        </mxCell>
        <mxCell id="rasIPgpJ51-KkkW6Vn-_-21" value="实时数据" style="rounded=0;whiteSpace=wrap;html=1;" parent="1" vertex="1">
          <mxGeometry x="1240" y="180" width="120" height="40" as="geometry" />
        </mxCell>
        <mxCell id="rasIPgpJ51-KkkW6Vn-_-22" value="" style="endArrow=classic;html=1;exitX=1;exitY=0.5;exitDx=0;exitDy=0;entryX=0;entryY=0.5;entryDx=0;entryDy=0;" parent="1" source="rasIPgpJ51-KkkW6Vn-_-19" target="rasIPgpJ51-KkkW6Vn-_-20" edge="1">
          <mxGeometry width="50" height="50" relative="1" as="geometry">
            <mxPoint x="1190" y="130" as="sourcePoint" />
            <mxPoint x="1240" y="80" as="targetPoint" />
          </mxGeometry>
        </mxCell>
        <mxCell id="rasIPgpJ51-KkkW6Vn-_-24" value="es" style="rounded=0;whiteSpace=wrap;html=1;" parent="1" vertex="1">
          <mxGeometry x="1890" y="30" width="120" height="40" as="geometry" />
        </mxCell>
        <mxCell id="rasIPgpJ51-KkkW6Vn-_-25" value="" style="endArrow=classic;html=1;exitX=1;exitY=0.5;exitDx=0;exitDy=0;entryX=0;entryY=0.5;entryDx=0;entryDy=0;" parent="1" source="rasIPgpJ51-KkkW6Vn-_-20" target="rasIPgpJ51-KkkW6Vn-_-24" edge="1">
          <mxGeometry width="50" height="50" relative="1" as="geometry">
            <mxPoint x="1400" y="80" as="sourcePoint" />
            <mxPoint x="1450" y="30" as="targetPoint" />
          </mxGeometry>
        </mxCell>
        <mxCell id="rasIPgpJ51-KkkW6Vn-_-32" value="从mysql中通过 select * 拉取数据，直接写入" style="edgeLabel;html=1;align=center;verticalAlign=middle;resizable=0;points=[];" parent="rasIPgpJ51-KkkW6Vn-_-25" vertex="1" connectable="0">
          <mxGeometry x="-0.1192" y="1" relative="1" as="geometry">
            <mxPoint as="offset" />
          </mxGeometry>
        </mxCell>
        <mxCell id="rasIPgpJ51-KkkW6Vn-_-27" value="" style="endArrow=classic;html=1;exitX=1;exitY=0.5;exitDx=0;exitDy=0;entryX=0;entryY=0.5;entryDx=0;entryDy=0;" parent="1" source="rasIPgpJ51-KkkW6Vn-_-19" target="rasIPgpJ51-KkkW6Vn-_-21" edge="1">
          <mxGeometry width="50" height="50" relative="1" as="geometry">
            <mxPoint x="1140" y="170" as="sourcePoint" />
            <mxPoint x="1190" y="120" as="targetPoint" />
          </mxGeometry>
        </mxCell>
        <mxCell id="rasIPgpJ51-KkkW6Vn-_-34" value="topic_del" style="rounded=0;whiteSpace=wrap;html=1;" parent="1" vertex="1">
          <mxGeometry x="1530" y="270" width="120" height="40" as="geometry" />
        </mxCell>
        <mxCell id="rasIPgpJ51-KkkW6Vn-_-35" value="topic" style="rounded=0;whiteSpace=wrap;html=1;fillColor=#60a917;strokeColor=#2D7600;fontColor=#ffffff;" parent="1" vertex="1">
          <mxGeometry x="1530" y="125" width="120" height="40" as="geometry" />
        </mxCell>
        <mxCell id="rasIPgpJ51-KkkW6Vn-_-37" value="delete 增量数据" style="endArrow=classic;html=1;exitX=1;exitY=0.5;exitDx=0;exitDy=0;entryX=0.5;entryY=0;entryDx=0;entryDy=0;" parent="1" source="rasIPgpJ51-KkkW6Vn-_-21" target="rasIPgpJ51-KkkW6Vn-_-34" edge="1">
          <mxGeometry width="50" height="50" relative="1" as="geometry">
            <mxPoint x="1440" y="340" as="sourcePoint" />
            <mxPoint x="1530" y="260" as="targetPoint" />
          </mxGeometry>
        </mxCell>
        <mxCell id="rasIPgpJ51-KkkW6Vn-_-38" value="" style="endArrow=classic;html=1;exitX=1;exitY=0.5;exitDx=0;exitDy=0;entryX=0;entryY=0.5;entryDx=0;entryDy=0;" parent="1" source="rasIPgpJ51-KkkW6Vn-_-21" target="rasIPgpJ51-KkkW6Vn-_-35" edge="1">
          <mxGeometry width="50" height="50" relative="1" as="geometry">
            <mxPoint x="1320" y="360" as="sourcePoint" />
            <mxPoint x="1370" y="310" as="targetPoint" />
          </mxGeometry>
        </mxCell>
        <mxCell id="rasIPgpJ51-KkkW6Vn-_-40" value="insert,update" style="edgeLabel;html=1;align=center;verticalAlign=middle;resizable=0;points=[];" parent="rasIPgpJ51-KkkW6Vn-_-38" vertex="1" connectable="0">
          <mxGeometry x="-0.0497" y="-1" relative="1" as="geometry">
            <mxPoint y="-1" as="offset" />
          </mxGeometry>
        </mxCell>
        <mxCell id="rasIPgpJ51-KkkW6Vn-_-41" value="直接写入" style="endArrow=classic;html=1;exitX=1;exitY=0.5;exitDx=0;exitDy=0;entryX=0;entryY=0.5;entryDx=0;entryDy=0;" parent="1" source="rasIPgpJ51-KkkW6Vn-_-35" target="rasIPgpJ51-KkkW6Vn-_-24" edge="1">
          <mxGeometry width="50" height="50" relative="1" as="geometry">
            <mxPoint x="1810" y="210" as="sourcePoint" />
            <mxPoint x="1860" y="160" as="targetPoint" />
          </mxGeometry>
        </mxCell>
        <mxCell id="rasIPgpJ51-KkkW6Vn-_-42" value="判断时间后写入" style="endArrow=classic;html=1;exitX=0.5;exitY=0;exitDx=0;exitDy=0;entryX=0;entryY=0.5;entryDx=0;entryDy=0;" parent="1" source="rasIPgpJ51-KkkW6Vn-_-34" target="rasIPgpJ51-KkkW6Vn-_-24" edge="1">
          <mxGeometry width="50" height="50" relative="1" as="geometry">
            <mxPoint x="1650" y="260" as="sourcePoint" />
            <mxPoint x="1840" y="220" as="targetPoint" />
          </mxGeometry>
        </mxCell>
        <mxCell id="rasIPgpJ51-KkkW6Vn-_-44" value="当前使用update_time，作为判断时间&lt;br&gt;字段，从 *_del topic中读取的数据，update_time &amp;lt; es.update_time 的直接舍弃，update_time &amp;gt; es.update_time的才能写入" style="shape=note;whiteSpace=wrap;html=1;backgroundOutline=1;darkOpacity=0.05;fillColor=#fff2cc;strokeColor=#d6b656;align=left;" parent="1" vertex="1">
          <mxGeometry x="1890" y="80" width="240" height="70" as="geometry" />
        </mxCell>
        <mxCell id="rasIPgpJ51-KkkW6Vn-_-45" value="&lt;span&gt;同步TIDB任务&lt;/span&gt;" style="rounded=1;whiteSpace=wrap;html=1;" parent="1" vertex="1">
          <mxGeometry x="1040" y="525" width="120" height="50" as="geometry" />
        </mxCell>
        <mxCell id="rasIPgpJ51-KkkW6Vn-_-46" value="存量数据" style="rounded=0;whiteSpace=wrap;html=1;" parent="1" vertex="1">
          <mxGeometry x="1244" y="675" width="120" height="40" as="geometry" />
        </mxCell>
        <mxCell id="rasIPgpJ51-KkkW6Vn-_-47" value="实时数据" style="rounded=0;whiteSpace=wrap;html=1;" parent="1" vertex="1">
          <mxGeometry x="1244" y="475" width="120" height="40" as="geometry" />
        </mxCell>
        <mxCell id="rasIPgpJ51-KkkW6Vn-_-48" value="TIDB" style="rounded=0;whiteSpace=wrap;html=1;" parent="1" vertex="1">
          <mxGeometry x="1880" y="510" width="120" height="40" as="geometry" />
        </mxCell>
        <mxCell id="rasIPgpJ51-KkkW6Vn-_-51" value="" style="endArrow=classic;html=1;exitX=1;exitY=0.5;exitDx=0;exitDy=0;entryX=0;entryY=0.5;entryDx=0;entryDy=0;" parent="1" source="rasIPgpJ51-KkkW6Vn-_-45" target="rasIPgpJ51-KkkW6Vn-_-46" edge="1">
          <mxGeometry width="50" height="50" relative="1" as="geometry">
            <mxPoint x="1190" y="485" as="sourcePoint" />
            <mxPoint x="1240" y="435" as="targetPoint" />
          </mxGeometry>
        </mxCell>
        <mxCell id="rasIPgpJ51-KkkW6Vn-_-53" value="从mysql中通过 select * 拉取数据，直接写入" style="endArrow=classic;html=1;strokeColor=#000000;exitX=1;exitY=0.5;exitDx=0;exitDy=0;entryX=0;entryY=0.5;entryDx=0;entryDy=0;" parent="1" source="rasIPgpJ51-KkkW6Vn-_-46" target="rasIPgpJ51-KkkW6Vn-_-48" edge="1">
          <mxGeometry width="50" height="50" relative="1" as="geometry">
            <mxPoint x="1420" y="495" as="sourcePoint" />
            <mxPoint x="1470" y="445" as="targetPoint" />
          </mxGeometry>
        </mxCell>
        <mxCell id="rasIPgpJ51-KkkW6Vn-_-54" value="" style="endArrow=classic;startArrow=classic;html=1;strokeColor=#000000;entryX=0.5;entryY=1;entryDx=0;entryDy=0;exitX=0.5;exitY=0;exitDx=0;exitDy=0;dashed=1;dashPattern=1 1;" parent="1" source="rasIPgpJ51-KkkW6Vn-_-21" target="rasIPgpJ51-KkkW6Vn-_-20" edge="1">
          <mxGeometry width="50" height="50" relative="1" as="geometry">
            <mxPoint x="1280" y="150" as="sourcePoint" />
            <mxPoint x="1330" y="100" as="targetPoint" />
          </mxGeometry>
        </mxCell>
        <mxCell id="rasIPgpJ51-KkkW6Vn-_-55" value="任务并行运行" style="edgeLabel;html=1;align=center;verticalAlign=middle;resizable=0;points=[];" parent="rasIPgpJ51-KkkW6Vn-_-54" vertex="1" connectable="0">
          <mxGeometry x="0.1455" relative="1" as="geometry">
            <mxPoint as="offset" />
          </mxGeometry>
        </mxCell>
        <mxCell id="rasIPgpJ51-KkkW6Vn-_-58" value="" style="endArrow=classic;startArrow=classic;html=1;dashed=1;dashPattern=1 1;strokeColor=#000000;entryX=0.5;entryY=0;entryDx=0;entryDy=0;exitX=0.5;exitY=1;exitDx=0;exitDy=0;" parent="1" source="rasIPgpJ51-KkkW6Vn-_-47" target="rasIPgpJ51-KkkW6Vn-_-46" edge="1">
          <mxGeometry width="50" height="50" relative="1" as="geometry">
            <mxPoint x="1304" y="505" as="sourcePoint" />
            <mxPoint x="1304" y="645" as="targetPoint" />
          </mxGeometry>
        </mxCell>
        <mxCell id="rasIPgpJ51-KkkW6Vn-_-59" value="&lt;span style=&quot;color: rgba(0 , 0 , 0 , 0) ; font-family: monospace ; font-size: 0px ; background-color: rgb(248 , 249 , 250)&quot;&gt;%3CmxGraphModel%3E%3Croot%3E%3CmxCell%20id%3D%220%22%2F%3E%3CmxCell%20id%3D%221%22%20parent%3D%220%22%2F%3E%3CmxCell%20id%3D%222%22%20value%3D%22%E4%BB%BB%E5%8A%A1%E5%B9%B6%E8%A1%8C%E8%BF%90%E8%A1%8C%22%20style%3D%22edgeLabel%3Bhtml%3D1%3Balign%3Dcenter%3BverticalAlign%3Dmiddle%3Bresizable%3D0%3Bpoints%3D%5B%5D%3B%22%20vertex%3D%221%22%20connectable%3D%220%22%20parent%3D%221%22%3E%3CmxGeometry%20x%3D%22350%22%20y%3D%22577%22%20as%3D%22geometry%22%2F%3E%3C%2FmxCell%3E%3C%2Froot%3E%3C%2FmxGraphModel%3Ererenw&amp;nbsp;&lt;/span&gt;" style="edgeLabel;html=1;align=center;verticalAlign=middle;resizable=0;points=[];" parent="rasIPgpJ51-KkkW6Vn-_-58" vertex="1" connectable="0">
          <mxGeometry x="0.0909" y="1" relative="1" as="geometry">
            <mxPoint as="offset" />
          </mxGeometry>
        </mxCell>
        <mxCell id="rasIPgpJ51-KkkW6Vn-_-60" value="任务并行运行" style="edgeLabel;html=1;align=center;verticalAlign=middle;resizable=0;points=[];" parent="rasIPgpJ51-KkkW6Vn-_-58" vertex="1" connectable="0">
          <mxGeometry x="-0.0364" relative="1" as="geometry">
            <mxPoint y="-7" as="offset" />
          </mxGeometry>
        </mxCell>
        <mxCell id="rasIPgpJ51-KkkW6Vn-_-61" value="topic_sup" style="rounded=0;whiteSpace=wrap;html=1;" parent="1" vertex="1">
          <mxGeometry x="1534" y="510" width="120" height="40" as="geometry" />
        </mxCell>
        <mxCell id="rasIPgpJ51-KkkW6Vn-_-62" value="topic" style="rounded=0;whiteSpace=wrap;html=1;fillColor=#60a917;strokeColor=#2D7600;fontColor=#ffffff;" parent="1" vertex="1">
          <mxGeometry x="1530" y="435" width="120" height="40" as="geometry" />
        </mxCell>
        <mxCell id="rasIPgpJ51-KkkW6Vn-_-63" value="insert, update,delete 增量数据" style="endArrow=classic;html=1;strokeColor=#000000;exitX=1;exitY=0.5;exitDx=0;exitDy=0;entryX=0;entryY=0.5;entryDx=0;entryDy=0;" parent="1" source="rasIPgpJ51-KkkW6Vn-_-47" target="rasIPgpJ51-KkkW6Vn-_-61" edge="1">
          <mxGeometry width="50" height="50" relative="1" as="geometry">
            <mxPoint x="1390" y="665" as="sourcePoint" />
            <mxPoint x="1440" y="615" as="targetPoint" />
          </mxGeometry>
        </mxCell>
        <mxCell id="rasIPgpJ51-KkkW6Vn-_-64" value="" style="endArrow=classic;html=1;exitX=1;exitY=0.5;exitDx=0;exitDy=0;entryX=0;entryY=0.5;entryDx=0;entryDy=0;dashed=1;strokeColor=#FF0000;" parent="1" source="rasIPgpJ51-KkkW6Vn-_-47" target="rasIPgpJ51-KkkW6Vn-_-62" edge="1">
          <mxGeometry width="50" height="50" relative="1" as="geometry">
            <mxPoint x="1400" y="625" as="sourcePoint" />
            <mxPoint x="1450" y="575" as="targetPoint" />
          </mxGeometry>
        </mxCell>
        <mxCell id="rasIPgpJ51-KkkW6Vn-_-65" value="insert, update,delete" style="edgeLabel;html=1;align=center;verticalAlign=middle;resizable=0;points=[];" parent="rasIPgpJ51-KkkW6Vn-_-64" vertex="1" connectable="0">
          <mxGeometry x="0.0371" y="2" relative="1" as="geometry">
            <mxPoint as="offset" />
          </mxGeometry>
        </mxCell>
        <mxCell id="rasIPgpJ51-KkkW6Vn-_-67" value="&lt;meta charset=&quot;utf-8&quot;&gt;&lt;span style=&quot;color: rgb(0, 0, 0); font-family: helvetica; font-size: 12px; font-style: normal; font-weight: 400; letter-spacing: normal; text-align: center; text-indent: 0px; text-transform: none; word-spacing: 0px; background-color: rgb(248, 249, 250); display: inline; float: none;&quot;&gt;*_sup消费完成后，新数据写入指定的topic&lt;/span&gt;" style="text;whiteSpace=wrap;html=1;" parent="1" vertex="1">
          <mxGeometry x="1480" y="410" width="250" height="30" as="geometry" />
        </mxCell>
        <mxCell id="rasIPgpJ51-KkkW6Vn-_-68" value="" style="endArrow=classic;html=1;exitX=1;exitY=0.5;exitDx=0;exitDy=0;entryX=0;entryY=0.5;entryDx=0;entryDy=0;" parent="1" source="rasIPgpJ51-KkkW6Vn-_-61" target="rasIPgpJ51-KkkW6Vn-_-48" edge="1">
          <mxGeometry width="50" height="50" relative="1" as="geometry">
            <mxPoint x="1770" y="675" as="sourcePoint" />
            <mxPoint x="1820" y="625" as="targetPoint" />
          </mxGeometry>
        </mxCell>
        <mxCell id="rasIPgpJ51-KkkW6Vn-_-69" value="" style="endArrow=classic;html=1;strokeColor=#000000;exitX=1;exitY=0.5;exitDx=0;exitDy=0;entryX=0;entryY=0.5;entryDx=0;entryDy=0;" parent="1" source="rasIPgpJ51-KkkW6Vn-_-62" target="rasIPgpJ51-KkkW6Vn-_-48" edge="1">
          <mxGeometry width="50" height="50" relative="1" as="geometry">
            <mxPoint x="1780" y="685" as="sourcePoint" />
            <mxPoint x="1830" y="635" as="targetPoint" />
          </mxGeometry>
        </mxCell>
        <mxCell id="rasIPgpJ51-KkkW6Vn-_-70" value="" style="endArrow=classic;html=1;strokeColor=#000000;exitX=1;exitY=0.5;exitDx=0;exitDy=0;entryX=0;entryY=0.5;entryDx=0;entryDy=0;" parent="1" source="rasIPgpJ51-KkkW6Vn-_-45" target="rasIPgpJ51-KkkW6Vn-_-47" edge="1">
          <mxGeometry width="50" height="50" relative="1" as="geometry">
            <mxPoint x="1130" y="485" as="sourcePoint" />
            <mxPoint x="1180" y="435" as="targetPoint" />
          </mxGeometry>
        </mxCell>
        <mxCell id="rasIPgpJ51-KkkW6Vn-_-71" value="zk" style="ellipse;shape=cloud;whiteSpace=wrap;html=1;fillColor=#647687;strokeColor=#314354;fontColor=#ffffff;" parent="1" vertex="1">
          <mxGeometry x="560" y="110" width="140" height="65" as="geometry" />
        </mxCell>
        <mxCell id="rasIPgpJ51-KkkW6Vn-_-72" value="" style="endArrow=classic;html=1;strokeColor=#000000;exitX=1;exitY=0.5;exitDx=0;exitDy=0;entryX=0.31;entryY=0.8;entryDx=0;entryDy=0;entryPerimeter=0;dashed=1;" parent="1" source="rasIPgpJ51-KkkW6Vn-_-3" target="rasIPgpJ51-KkkW6Vn-_-71" edge="1">
          <mxGeometry width="50" height="50" relative="1" as="geometry">
            <mxPoint x="510" y="235" as="sourcePoint" />
            <mxPoint x="560" y="185" as="targetPoint" />
          </mxGeometry>
        </mxCell>
        <mxCell id="rasIPgpJ51-KkkW6Vn-_-73" value="" style="endArrow=classic;html=1;strokeColor=#000000;exitX=1;exitY=0.5;exitDx=0;exitDy=0;entryX=0.31;entryY=0.8;entryDx=0;entryDy=0;entryPerimeter=0;dashed=1;" parent="1" source="rasIPgpJ51-KkkW6Vn-_-7" target="rasIPgpJ51-KkkW6Vn-_-71" edge="1">
          <mxGeometry width="50" height="50" relative="1" as="geometry">
            <mxPoint x="570" y="370" as="sourcePoint" />
            <mxPoint x="620" y="320" as="targetPoint" />
          </mxGeometry>
        </mxCell>
        <mxCell id="rasIPgpJ51-KkkW6Vn-_-74" value="" style="endArrow=classic;html=1;dashed=1;strokeColor=#000000;exitX=0.8;exitY=0.8;exitDx=0;exitDy=0;exitPerimeter=0;entryX=0.5;entryY=0;entryDx=0;entryDy=0;" parent="1" source="rasIPgpJ51-KkkW6Vn-_-71" target="rasIPgpJ51-KkkW6Vn-_-8" edge="1">
          <mxGeometry width="50" height="50" relative="1" as="geometry">
            <mxPoint x="620" y="270" as="sourcePoint" />
            <mxPoint x="670" y="220" as="targetPoint" />
          </mxGeometry>
        </mxCell>
        <mxCell id="rasIPgpJ51-KkkW6Vn-_-76" value="监听：新节点" style="edgeLabel;html=1;align=center;verticalAlign=middle;resizable=0;points=[];" parent="rasIPgpJ51-KkkW6Vn-_-74" vertex="1" connectable="0">
          <mxGeometry x="-0.143" y="1" relative="1" as="geometry">
            <mxPoint y="1" as="offset" />
          </mxGeometry>
        </mxCell>
        <mxCell id="rasIPgpJ51-KkkW6Vn-_-75" value="写入新节点" style="text;html=1;strokeColor=none;fillColor=none;align=center;verticalAlign=middle;whiteSpace=wrap;rounded=0;" parent="1" vertex="1">
          <mxGeometry x="440" y="215" width="90" height="20" as="geometry" />
        </mxCell>
        <mxCell id="rasIPgpJ51-KkkW6Vn-_-77" value="" style="endArrow=classic;html=1;strokeColor=#000000;exitX=1;exitY=0.5;exitDx=0;exitDy=0;entryX=0;entryY=0.5;entryDx=0;entryDy=0;" parent="1" source="rasIPgpJ51-KkkW6Vn-_-8" target="rasIPgpJ51-KkkW6Vn-_-19" edge="1">
          <mxGeometry width="50" height="50" relative="1" as="geometry">
            <mxPoint x="900" y="320" as="sourcePoint" />
            <mxPoint x="950" y="270" as="targetPoint" />
          </mxGeometry>
        </mxCell>
        <mxCell id="rasIPgpJ51-KkkW6Vn-_-80" value="启动" style="edgeLabel;html=1;align=center;verticalAlign=middle;resizable=0;points=[];" parent="rasIPgpJ51-KkkW6Vn-_-77" vertex="1" connectable="0">
          <mxGeometry x="0.0307" y="-1" relative="1" as="geometry">
            <mxPoint as="offset" />
          </mxGeometry>
        </mxCell>
        <mxCell id="rasIPgpJ51-KkkW6Vn-_-78" value="" style="endArrow=classic;html=1;strokeColor=#000000;entryX=0;entryY=0.5;entryDx=0;entryDy=0;" parent="1" target="rasIPgpJ51-KkkW6Vn-_-45" edge="1">
          <mxGeometry width="50" height="50" relative="1" as="geometry">
            <mxPoint x="820" y="320" as="sourcePoint" />
            <mxPoint x="960" y="330" as="targetPoint" />
          </mxGeometry>
        </mxCell>
        <mxCell id="rasIPgpJ51-KkkW6Vn-_-81" value="启动" style="edgeLabel;html=1;align=center;verticalAlign=middle;resizable=0;points=[];" parent="rasIPgpJ51-KkkW6Vn-_-78" vertex="1" connectable="0">
          <mxGeometry x="-0.1667" y="-3" relative="1" as="geometry">
            <mxPoint x="20" y="5" as="offset" />
          </mxGeometry>
        </mxCell>
        <mxCell id="rasIPgpJ51-KkkW6Vn-_-88" value="&lt;font style=&quot;font-size: 6px&quot;&gt;&lt;b&gt;&lt;font color=&quot;#ff0000&quot;&gt;ES&lt;/font&gt;&lt;/b&gt;&lt;br&gt;&lt;br&gt;【&lt;b&gt;库级别&lt;/b&gt;】：&lt;br&gt;&amp;nbsp; &amp;nbsp; 路径：/galaxy3/&lt;span style=&quot;font-size: 12px&quot;&gt;***&lt;/span&gt;_bao/slow/es7&lt;br&gt;&amp;nbsp; &amp;nbsp; 取值：&lt;br&gt;&lt;font&gt;&lt;span style=&quot;color: rgb(74 , 85 , 96) ; font-family: &amp;#34;menlo&amp;#34; , monospace , &amp;#34;tahoma&amp;#34; , , ; background-color: rgb(255 , 255 , 255)&quot;&gt;{&lt;/span&gt;&lt;br style=&quot;box-sizing: border-box ; color: rgb(74 , 85 , 96) ; font-family: &amp;#34;menlo&amp;#34; , monospace , &amp;#34;tahoma&amp;#34; , , ; background-color: rgb(255 , 255 , 255)&quot;&gt;&lt;span style=&quot;color: rgb(74 , 85 , 96) ; font-family: &amp;#34;menlo&amp;#34; , monospace , &amp;#34;tahoma&amp;#34; , , ; background-color: rgb(255 , 255 , 255)&quot;&gt;&amp;nbsp;&amp;nbsp;&amp;nbsp;&amp;nbsp;&lt;/span&gt;&lt;span class=&quot;json_key&quot; style=&quot;box-sizing: border-box ; color: rgb(146 , 39 , 143) ; font-weight: bold ; font-family: &amp;#34;menlo&amp;#34; , monospace , &amp;#34;tahoma&amp;#34; , , ; background-color: rgb(255 , 255 , 255)&quot;&gt;&quot;deleteTopic&quot;&lt;/span&gt;&lt;span style=&quot;color: rgb(74 , 85 , 96) ; font-family: &amp;#34;menlo&amp;#34; , monospace , &amp;#34;tahoma&amp;#34; , , ; background-color: rgb(255 , 255 , 255)&quot;&gt;:&lt;/span&gt;&lt;span class=&quot;json_string&quot; style=&quot;box-sizing: border-box ; color: rgb(58 , 181 , 74) ; font-weight: bold ; font-family: &amp;#34;menlo&amp;#34; , monospace , &amp;#34;tahoma&amp;#34; , , ; background-color: rgb(255 , 255 , 255)&quot;&gt;&quot;***_bao_del&quot;&lt;/span&gt;&lt;span style=&quot;color: rgb(74 , 85 , 96) ; font-family: &amp;#34;menlo&amp;#34; , monospace , &amp;#34;tahoma&amp;#34; , , ; background-color: rgb(255 , 255 , 255)&quot;&gt;, // 辅助topic，用于暂存导入存量数据过程中，实时新产生的delete数据（es）[tidb 为 *_sup 且为实时的全量数据]&lt;/span&gt;&lt;br style=&quot;box-sizing: border-box ; color: rgb(74 , 85 , 96) ; font-family: &amp;#34;menlo&amp;#34; , monospace , &amp;#34;tahoma&amp;#34; , , ; background-color: rgb(255 , 255 , 255)&quot;&gt;&lt;span style=&quot;color: rgb(74 , 85 , 96) ; font-family: &amp;#34;menlo&amp;#34; , monospace , &amp;#34;tahoma&amp;#34; , , ; background-color: rgb(255 , 255 , 255)&quot;&gt;&amp;nbsp;&amp;nbsp;&amp;nbsp;&amp;nbsp;&lt;/span&gt;&lt;span class=&quot;json_key&quot; style=&quot;box-sizing: border-box ; color: rgb(146 , 39 , 143) ; font-weight: bold ; font-family: &amp;#34;menlo&amp;#34; , monospace , &amp;#34;tahoma&amp;#34; , , ; background-color: rgb(255 , 255 , 255)&quot;&gt;&quot;errTopic&quot;&lt;/span&gt;&lt;span style=&quot;color: rgb(74 , 85 , 96) ; font-family: &amp;#34;menlo&amp;#34; , monospace , &amp;#34;tahoma&amp;#34; , , ; background-color: rgb(255 , 255 , 255)&quot;&gt;:&lt;/span&gt;&lt;span class=&quot;json_string&quot; style=&quot;box-sizing: border-box ; color: rgb(58 , 181 , 74) ; font-weight: bold ; font-family: &amp;#34;menlo&amp;#34; , monospace , &amp;#34;tahoma&amp;#34; , , ; background-color: rgb(255 , 255 , 255)&quot;&gt;&quot;***_bao_err_retry&quot;&lt;/span&gt;&lt;span style=&quot;color: rgb(74 , 85 , 96) ; font-family: &amp;#34;menlo&amp;#34; , monospace , &amp;#34;tahoma&amp;#34; , , ; background-color: rgb(255 , 255 , 255)&quot;&gt;,&lt;/span&gt;&lt;br style=&quot;box-sizing: border-box ; color: rgb(74 , 85 , 96) ; font-family: &amp;#34;menlo&amp;#34; , monospace , &amp;#34;tahoma&amp;#34; , , ; background-color: rgb(255 , 255 , 255)&quot;&gt;&lt;span style=&quot;color: rgb(74 , 85 , 96) ; font-family: &amp;#34;menlo&amp;#34; , monospace , &amp;#34;tahoma&amp;#34; , , ; background-color: rgb(255 , 255 , 255)&quot;&gt;&amp;nbsp;&amp;nbsp;&amp;nbsp;&amp;nbsp;&lt;/span&gt;&lt;span class=&quot;json_key&quot; style=&quot;box-sizing: border-box ; color: rgb(146 , 39 , 143) ; font-weight: bold ; font-family: &amp;#34;menlo&amp;#34; , monospace , &amp;#34;tahoma&amp;#34; , , ; background-color: rgb(255 , 255 , 255)&quot;&gt;&quot;dbName&quot;&lt;/span&gt;&lt;span style=&quot;color: rgb(74 , 85 , 96) ; font-family: &amp;#34;menlo&amp;#34; , monospace , &amp;#34;tahoma&amp;#34; , , ; background-color: rgb(255 , 255 , 255)&quot;&gt;:&lt;/span&gt;&lt;span class=&quot;json_string&quot; style=&quot;box-sizing: border-box ; color: rgb(58 , 181 , 74) ; font-weight: bold ; font-family: &amp;#34;menlo&amp;#34; , monospace , &amp;#34;tahoma&amp;#34; , , ; background-color: rgb(255 , 255 , 255)&quot;&gt;&quot;***_dev&quot;&lt;/span&gt;&lt;span style=&quot;color: rgb(74 , 85 , 96) ; font-family: &amp;#34;menlo&amp;#34; , monospace , &amp;#34;tahoma&amp;#34; , , ; background-color: rgb(255 , 255 , 255)&quot;&gt;,&lt;/span&gt;&lt;br style=&quot;box-sizing: border-box ; color: rgb(74 , 85 , 96) ; font-family: &amp;#34;menlo&amp;#34; , monospace , &amp;#34;tahoma&amp;#34; , , ; background-color: rgb(255 , 255 , 255)&quot;&gt;&lt;span style=&quot;color: rgb(74 , 85 , 96) ; font-family: &amp;#34;menlo&amp;#34; , monospace , &amp;#34;tahoma&amp;#34; , , ; background-color: rgb(255 , 255 , 255)&quot;&gt;&amp;nbsp;&amp;nbsp;&amp;nbsp;&amp;nbsp;&lt;/span&gt;&lt;span class=&quot;json_key&quot; style=&quot;box-sizing: border-box ; color: rgb(146 , 39 , 143) ; font-weight: bold ; font-family: &amp;#34;menlo&amp;#34; , monospace , &amp;#34;tahoma&amp;#34; , , ; background-color: rgb(255 , 255 , 255)&quot;&gt;&quot;groupId&quot;&lt;/span&gt;&lt;span style=&quot;color: rgb(74 , 85 , 96) ; font-family: &amp;#34;menlo&amp;#34; , monospace , &amp;#34;tahoma&amp;#34; , , ; background-color: rgb(255 , 255 , 255)&quot;&gt;:&lt;/span&gt;&lt;span class=&quot;json_string&quot; style=&quot;box-sizing: border-box ; color: rgb(58 , 181 , 74) ; font-weight: bold ; font-family: &amp;#34;menlo&amp;#34; , monospace , &amp;#34;tahoma&amp;#34; , , ; background-color: rgb(255 , 255 , 255)&quot;&gt;&quot;galaxy-***_bao-es7-slow&quot;&lt;/span&gt;&lt;span style=&quot;color: rgb(74 , 85 , 96) ; font-family: &amp;#34;menlo&amp;#34; , monospace , &amp;#34;tahoma&amp;#34; , , ; background-color: rgb(255 , 255 , 255)&quot;&gt;, // 实时数据&lt;/span&gt;&lt;br style=&quot;box-sizing: border-box ; color: rgb(74 , 85 , 96) ; font-family: &amp;#34;menlo&amp;#34; , monospace , &amp;#34;tahoma&amp;#34; , , ; background-color: rgb(255 , 255 , 255)&quot;&gt;&lt;span style=&quot;color: rgb(74 , 85 , 96) ; font-family: &amp;#34;menlo&amp;#34; , monospace , &amp;#34;tahoma&amp;#34; , , ; background-color: rgb(255 , 255 , 255)&quot;&gt;&amp;nbsp;&amp;nbsp;&amp;nbsp;&amp;nbsp;&lt;/span&gt;&lt;span class=&quot;json_key&quot; style=&quot;box-sizing: border-box ; color: rgb(146 , 39 , 143) ; font-weight: bold ; font-family: &amp;#34;menlo&amp;#34; , monospace , &amp;#34;tahoma&amp;#34; , , ; background-color: rgb(255 , 255 , 255)&quot;&gt;&quot;errGroupId&quot;&lt;/span&gt;&lt;span style=&quot;color: rgb(74 , 85 , 96) ; font-family: &amp;#34;menlo&amp;#34; , monospace , &amp;#34;tahoma&amp;#34; , , ; background-color: rgb(255 , 255 , 255)&quot;&gt;:&lt;/span&gt;&lt;span class=&quot;json_string&quot; style=&quot;box-sizing: border-box ; color: rgb(58 , 181 , 74) ; font-weight: bold ; font-family: &amp;#34;menlo&amp;#34; , monospace , &amp;#34;tahoma&amp;#34; , , ; background-color: rgb(255 , 255 , 255)&quot;&gt;&quot;galaxy-***_bao-es7-slow_err_retry&quot;&lt;/span&gt;&lt;span style=&quot;color: rgb(74 , 85 , 96) ; font-family: &amp;#34;menlo&amp;#34; , monospace , &amp;#34;tahoma&amp;#34; , , ; background-color: rgb(255 , 255 , 255)&quot;&gt;, // 实时处理过程中，异常数据存入&lt;/span&gt;&lt;br style=&quot;box-sizing: border-box ; color: rgb(74 , 85 , 96) ; font-family: &amp;#34;menlo&amp;#34; , monospace , &amp;#34;tahoma&amp;#34; , , ; background-color: rgb(255 , 255 , 255)&quot;&gt;&lt;span style=&quot;color: rgb(74 , 85 , 96) ; font-family: &amp;#34;menlo&amp;#34; , monospace , &amp;#34;tahoma&amp;#34; , , ; background-color: rgb(255 , 255 , 255)&quot;&gt;&amp;nbsp;&amp;nbsp;&amp;nbsp;&amp;nbsp;&lt;/span&gt;&lt;span class=&quot;json_key&quot; style=&quot;box-sizing: border-box ; color: rgb(146 , 39 , 143) ; font-weight: bold ; font-family: &amp;#34;menlo&amp;#34; , monospace , &amp;#34;tahoma&amp;#34; , , ; background-color: rgb(255 , 255 , 255)&quot;&gt;&quot;kfkTopic&quot;&lt;/span&gt;&lt;span style=&quot;color: rgb(74 , 85 , 96) ; font-family: &amp;#34;menlo&amp;#34; , monospace , &amp;#34;tahoma&amp;#34; , , ; background-color: rgb(255 , 255 , 255)&quot;&gt;:&lt;/span&gt;&lt;span class=&quot;json_string&quot; style=&quot;box-sizing: border-box ; color: rgb(58 , 181 , 74) ; font-weight: bold ; font-family: &amp;#34;menlo&amp;#34; , monospace , &amp;#34;tahoma&amp;#34; , , ; background-color: rgb(255 , 255 , 255)&quot;&gt;&quot;***_bao&quot;&lt;/span&gt;&lt;br style=&quot;box-sizing: border-box ; color: rgb(74 , 85 , 96) ; font-family: &amp;#34;menlo&amp;#34; , monospace , &amp;#34;tahoma&amp;#34; , , ; background-color: rgb(255 , 255 , 255)&quot;&gt;&lt;span style=&quot;color: rgb(74 , 85 , 96) ; font-family: &amp;#34;menlo&amp;#34; , monospace , &amp;#34;tahoma&amp;#34; , , ; background-color: rgb(255 , 255 , 255)&quot;&gt;}&lt;/span&gt;&lt;/font&gt;&lt;span&gt;&lt;br&gt;&lt;/span&gt;&amp;nbsp; &amp;nbsp; &amp;nbsp; &amp;nbsp; &amp;nbsp; &amp;nbsp; #【&lt;b&gt;任务级别&lt;/b&gt;】：&lt;br&gt;&amp;nbsp; &amp;nbsp; &amp;nbsp; &amp;nbsp; &amp;nbsp; &amp;nbsp; &amp;nbsp; &amp;nbsp; &amp;nbsp; &amp;nbsp; 路径：/galaxy3/&lt;span style=&quot;font-size: 12px&quot;&gt;***&lt;/span&gt;_bao/slow/es7/1515&lt;br&gt;&amp;nbsp; &amp;nbsp; &amp;nbsp; &amp;nbsp; &amp;nbsp; &amp;nbsp; &amp;nbsp; &amp;nbsp; &amp;nbsp; &amp;nbsp; 取值：&lt;br&gt;&lt;span class=&quot;fa fa-minus-square-o&quot; style=&quot;box-sizing: border-box ; display: inline-block ; font-stretch: normal ; line-height: 1 ; font-family: &amp;#34;fontawesome&amp;#34; ; color: rgb(74 , 85 , 96) ; background-color: rgb(255 , 255 , 255) ; cursor: pointer&quot;&gt;&lt;/span&gt;&lt;font&gt;&lt;span style=&quot;color: rgb(74 , 85 , 96) ; background-color: rgb(255 , 255 , 255)&quot;&gt;{&lt;/span&gt;&lt;br style=&quot;box-sizing: border-box ; color: rgb(74 , 85 , 96) ; background-color: rgb(255 , 255 , 255)&quot;&gt;&lt;span style=&quot;color: rgb(74 , 85 , 96) ; background-color: rgb(255 , 255 , 255)&quot;&gt;&amp;nbsp;&amp;nbsp;&amp;nbsp;&amp;nbsp;&lt;/span&gt;&lt;span class=&quot;json_key&quot; style=&quot;box-sizing: border-box ; color: rgb(146 , 39 , 143) ; font-weight: bold ; background-color: rgb(255 , 255 , 255)&quot;&gt;&quot;closeDelete&quot;&lt;/span&gt;&lt;span style=&quot;color: rgb(74 , 85 , 96) ; background-color: rgb(255 , 255 , 255)&quot;&gt;:&lt;/span&gt;&lt;span class=&quot;json_boolean&quot; style=&quot;box-sizing: border-box ; color: rgb(249 , 130 , 128) ; font-weight: bold ; background-color: rgb(255 , 255 , 255)&quot;&gt;true&lt;/span&gt;&lt;span style=&quot;color: rgb(74 , 85 , 96) ; background-color: rgb(255 , 255 , 255)&quot;&gt;,&amp;nbsp; // 关闭对 _del 的消费&lt;/span&gt;&lt;br style=&quot;box-sizing: border-box ; color: rgb(74 , 85 , 96) ; background-color: rgb(255 , 255 , 255)&quot;&gt;&lt;span style=&quot;color: rgb(74 , 85 , 96) ; background-color: rgb(255 , 255 , 255)&quot;&gt;&amp;nbsp;&amp;nbsp;&amp;nbsp;&amp;nbsp;&lt;/span&gt;&lt;span class=&quot;json_key&quot; style=&quot;box-sizing: border-box ; color: rgb(146 , 39 , 143) ; font-weight: bold ; background-color: rgb(255 , 255 , 255)&quot;&gt;&quot;clusterName&quot;&lt;/span&gt;&lt;span style=&quot;color: rgb(74 , 85 , 96) ; background-color: rgb(255 , 255 , 255)&quot;&gt;:&lt;/span&gt;&lt;span class=&quot;json_string&quot; style=&quot;box-sizing: border-box ; color: rgb(58 , 181 , 74) ; font-weight: bold ; background-color: rgb(255 , 255 , 255)&quot;&gt;&quot;es-common&quot;&lt;/span&gt;&lt;span style=&quot;color: rgb(74 , 85 , 96) ; background-color: rgb(255 , 255 , 255)&quot;&gt;,&lt;/span&gt;&lt;br style=&quot;box-sizing: border-box ; color: rgb(74 , 85 , 96) ; background-color: rgb(255 , 255 , 255)&quot;&gt;&lt;span style=&quot;color: rgb(74 , 85 , 96) ; background-color: rgb(255 , 255 , 255)&quot;&gt;&amp;nbsp;&amp;nbsp;&amp;nbsp;&amp;nbsp;&lt;/span&gt;&lt;span class=&quot;json_key&quot; style=&quot;box-sizing: border-box ; color: rgb(146 , 39 , 143) ; font-weight: bold ; background-color: rgb(255 , 255 , 255)&quot;&gt;&quot;deleteGroupId&quot;&lt;/span&gt;&lt;span style=&quot;color: rgb(74 , 85 , 96) ; background-color: rgb(255 , 255 , 255)&quot;&gt;:&lt;/span&gt;&lt;span class=&quot;json_string&quot; style=&quot;box-sizing: border-box ; color: rgb(58 , 181 , 74) ; font-weight: bold ; background-color: rgb(255 , 255 , 255)&quot;&gt;&quot;galaxy-***_bao-es7-slow-1515_del&quot;&lt;/span&gt;&lt;span style=&quot;color: rgb(74 , 85 , 96) ; background-color: rgb(255 , 255 , 255)&quot;&gt;,&lt;/span&gt;&lt;br style=&quot;box-sizing: border-box ; color: rgb(74 , 85 , 96) ; background-color: rgb(255 , 255 , 255)&quot;&gt;&lt;span style=&quot;color: rgb(74 , 85 , 96) ; background-color: rgb(255 , 255 , 255)&quot;&gt;&amp;nbsp;&amp;nbsp;&amp;nbsp;&amp;nbsp;&lt;/span&gt;&lt;span class=&quot;json_key&quot; style=&quot;box-sizing: border-box ; color: rgb(146 , 39 , 143) ; font-weight: bold ; background-color: rgb(255 , 255 , 255)&quot;&gt;&quot;idColumns&quot;&lt;/span&gt;&lt;span style=&quot;color: rgb(74 , 85 , 96) ; background-color: rgb(255 , 255 , 255)&quot;&gt;:&lt;/span&gt;&lt;span style=&quot;box-sizing: border-box ; color: rgb(74 , 85 , 96) ; background-color: rgb(255 , 255 , 255)&quot;&gt;&lt;span class=&quot;fa fa-minus-square-o&quot; style=&quot;box-sizing: border-box ; display: inline-block ; font-stretch: normal ; line-height: 1 ; font-family: &amp;#34;fontawesome&amp;#34; ; cursor: pointer&quot;&gt;&lt;/span&gt;[&amp;nbsp; // 主键字段（可能联合主键）&lt;br style=&quot;box-sizing: border-box&quot;&gt;&amp;nbsp;&amp;nbsp;&amp;nbsp;&amp;nbsp;&amp;nbsp;&amp;nbsp;&amp;nbsp;&amp;nbsp;&lt;span class=&quot;json_string&quot; style=&quot;box-sizing: border-box ; color: rgb(58 , 181 , 74) ; font-weight: bold&quot;&gt;&quot;id&quot;&lt;/span&gt;&lt;br style=&quot;box-sizing: border-box&quot;&gt;&amp;nbsp;&amp;nbsp;&amp;nbsp;&amp;nbsp;]&lt;/span&gt;&lt;span style=&quot;color: rgb(74 , 85 , 96) ; background-color: rgb(255 , 255 , 255)&quot;&gt;,&lt;/span&gt;&lt;br style=&quot;box-sizing: border-box ; color: rgb(74 , 85 , 96) ; background-color: rgb(255 , 255 , 255)&quot;&gt;&lt;span style=&quot;color: rgb(74 , 85 , 96) ; background-color: rgb(255 , 255 , 255)&quot;&gt;&amp;nbsp;&amp;nbsp;&amp;nbsp;&amp;nbsp;&lt;/span&gt;&lt;span class=&quot;json_key&quot; style=&quot;box-sizing: border-box ; color: rgb(146 , 39 , 143) ; font-weight: bold ; background-color: rgb(255 , 255 , 255)&quot;&gt;&quot;index&quot;&lt;/span&gt;&lt;span style=&quot;color: rgb(74 , 85 , 96) ; background-color: rgb(255 , 255 , 255)&quot;&gt;:&lt;/span&gt;&lt;span class=&quot;json_string&quot; style=&quot;box-sizing: border-box ; color: rgb(58 , 181 , 74) ; font-weight: bold ; background-color: rgb(255 , 255 , 255)&quot;&gt;&quot;***_bao_insurance_order_20210311&quot;&lt;/span&gt;&lt;span style=&quot;color: rgb(74 , 85 , 96) ; background-color: rgb(255 , 255 , 255)&quot;&gt;,&lt;/span&gt;&lt;br style=&quot;box-sizing: border-box ; color: rgb(74 , 85 , 96) ; background-color: rgb(255 , 255 , 255)&quot;&gt;&lt;span style=&quot;color: rgb(74 , 85 , 96) ; background-color: rgb(255 , 255 , 255)&quot;&gt;&amp;nbsp;&amp;nbsp;&amp;nbsp;&amp;nbsp;&lt;/span&gt;&lt;span class=&quot;json_key&quot; style=&quot;box-sizing: border-box ; color: rgb(146 , 39 , 143) ; font-weight: bold ; background-color: rgb(255 , 255 , 255)&quot;&gt;&quot;indexType&quot;&lt;/span&gt;&lt;span style=&quot;color: rgb(74 , 85 , 96) ; background-color: rgb(255 , 255 , 255)&quot;&gt;:&lt;/span&gt;&lt;span class=&quot;json_string&quot; style=&quot;box-sizing: border-box ; color: rgb(58 , 181 , 74) ; font-weight: bold ; background-color: rgb(255 , 255 , 255)&quot;&gt;&quot;detail&quot;&lt;/span&gt;&lt;span style=&quot;color: rgb(74 , 85 , 96) ; background-color: rgb(255 , 255 , 255)&quot;&gt;,&lt;/span&gt;&lt;br style=&quot;box-sizing: border-box ; color: rgb(74 , 85 , 96) ; background-color: rgb(255 , 255 , 255)&quot;&gt;&lt;span style=&quot;color: rgb(74 , 85 , 96) ; background-color: rgb(255 , 255 , 255)&quot;&gt;&amp;nbsp;&amp;nbsp;&amp;nbsp;&amp;nbsp;&lt;/span&gt;&lt;span class=&quot;json_key&quot; style=&quot;box-sizing: border-box ; color: rgb(146 , 39 , 143) ; font-weight: bold ; background-color: rgb(255 , 255 , 255)&quot;&gt;&quot;jsonColumns&quot;&lt;/span&gt;&lt;span style=&quot;color: rgb(74 , 85 , 96) ; background-color: rgb(255 , 255 , 255)&quot;&gt;:&lt;/span&gt;&lt;span style=&quot;box-sizing: border-box ; color: rgb(74 , 85 , 96) ; background-color: rgb(255 , 255 , 255)&quot;&gt;&lt;span class=&quot;fa fa-minus-square-o&quot; style=&quot;box-sizing: border-box ; display: inline-block ; font-stretch: normal ; line-height: 1 ; font-family: &amp;#34;fontawesome&amp;#34; ; cursor: pointer&quot;&gt;&lt;/span&gt;[ // 用于指定是否将内部的字段转为json格式存储&lt;br style=&quot;box-sizing: border-box&quot;&gt;&lt;br style=&quot;box-sizing: border-box&quot;&gt;&amp;nbsp;&amp;nbsp;&amp;nbsp;&amp;nbsp;]&lt;/span&gt;&lt;span style=&quot;color: rgb(74 , 85 , 96) ; background-color: rgb(255 , 255 , 255)&quot;&gt;,&lt;/span&gt;&lt;br style=&quot;box-sizing: border-box ; color: rgb(74 , 85 , 96) ; background-color: rgb(255 , 255 , 255)&quot;&gt;&lt;span style=&quot;color: rgb(74 , 85 , 96) ; background-color: rgb(255 , 255 , 255)&quot;&gt;&amp;nbsp;&amp;nbsp;&amp;nbsp;&amp;nbsp;&lt;/span&gt;&lt;span class=&quot;json_key&quot; style=&quot;box-sizing: border-box ; color: rgb(146 , 39 , 143) ; font-weight: bold ; background-color: rgb(255 , 255 , 255)&quot;&gt;&quot;pkRuleId&quot;&lt;/span&gt;&lt;span style=&quot;color: rgb(74 , 85 , 96) ; background-color: rgb(255 , 255 , 255)&quot;&gt;:&lt;/span&gt;&lt;span class=&quot;json_number&quot; style=&quot;box-sizing: border-box ; color: rgb(37 , 170 , 226) ; font-weight: bold ; background-color: rgb(255 , 255 , 255)&quot;&gt;2&lt;/span&gt;&lt;span style=&quot;color: rgb(74 , 85 , 96) ; background-color: rgb(255 , 255 , 255)&quot;&gt;, // 生成主键的规则（是否在 idColumns 中追加前后缀）&lt;/span&gt;&lt;br style=&quot;box-sizing: border-box ; color: rgb(74 , 85 , 96) ; background-color: rgb(255 , 255 , 255)&quot;&gt;&lt;span style=&quot;color: rgb(74 , 85 , 96) ; background-color: rgb(255 , 255 , 255)&quot;&gt;&amp;nbsp;&amp;nbsp;&amp;nbsp;&amp;nbsp;&lt;/span&gt;&lt;span class=&quot;json_key&quot; style=&quot;box-sizing: border-box ; color: rgb(146 , 39 , 143) ; font-weight: bold ; background-color: rgb(255 , 255 , 255)&quot;&gt;&quot;sendDelete&quot;&lt;/span&gt;&lt;span style=&quot;color: rgb(74 , 85 , 96) ; background-color: rgb(255 , 255 , 255)&quot;&gt;:&lt;/span&gt;&lt;span class=&quot;json_boolean&quot; style=&quot;box-sizing: border-box ; color: rgb(249 , 130 , 128) ; font-weight: bold ; background-color: rgb(255 , 255 , 255)&quot;&gt;false&lt;/span&gt;&lt;span style=&quot;color: rgb(74 , 85 , 96) ; background-color: rgb(255 , 255 , 255)&quot;&gt;, // 存量任务是否在运行中&lt;/span&gt;&lt;br style=&quot;box-sizing: border-box ; color: rgb(74 , 85 , 96) ; background-color: rgb(255 , 255 , 255)&quot;&gt;&lt;span style=&quot;color: rgb(74 , 85 , 96) ; background-color: rgb(255 , 255 , 255)&quot;&gt;&amp;nbsp;&amp;nbsp;&amp;nbsp;&amp;nbsp;&lt;/span&gt;&lt;span class=&quot;json_key&quot; style=&quot;box-sizing: border-box ; color: rgb(146 , 39 , 143) ; font-weight: bold ; background-color: rgb(255 , 255 , 255)&quot;&gt;&quot;table&quot;&lt;/span&gt;&lt;span style=&quot;color: rgb(74 , 85 , 96) ; background-color: rgb(255 , 255 , 255)&quot;&gt;:&lt;/span&gt;&lt;span class=&quot;json_string&quot; style=&quot;box-sizing: border-box ; color: rgb(58 , 181 , 74) ; font-weight: bold ; background-color: rgb(255 , 255 , 255)&quot;&gt;&quot;insurance_order&quot;&lt;/span&gt;&lt;span style=&quot;color: rgb(74 , 85 , 96) ; background-color: rgb(255 , 255 , 255)&quot;&gt;,&lt;/span&gt;&lt;br style=&quot;box-sizing: border-box ; color: rgb(74 , 85 , 96) ; background-color: rgb(255 , 255 , 255)&quot;&gt;&lt;font&gt;&lt;span style=&quot;color: rgb(74 , 85 , 96) ; background-color: rgb(255 , 255 , 255)&quot;&gt;&amp;nbsp;&lt;font&gt;&amp;nbsp;&amp;nbsp;&amp;nbsp;&lt;/font&gt;&lt;/span&gt;&lt;span class=&quot;json_key&quot; style=&quot;box-sizing: border-box ; color: rgb(146 , 39 , 143) ; font-weight: bold ; background-color: rgb(255 , 255 , 255)&quot;&gt;&quot;u&lt;/span&gt;&lt;/font&gt;&lt;/font&gt;&lt;span class=&quot;json_key&quot; style=&quot;box-sizing: border-box ; color: rgb(146 , 39 , 143) ; font-weight: bold ; background-color: rgb(255 , 255 , 255)&quot;&gt;pdateTimeColumn&quot;&lt;/span&gt;&lt;span style=&quot;color: rgb(74 , 85 , 96) ; background-color: rgb(255 , 255 , 255)&quot;&gt;:&lt;/span&gt;&lt;span class=&quot;json_string&quot; style=&quot;box-sizing: border-box ; color: rgb(58 , 181 , 74) ; font-weight: bold ; background-color: rgb(255 , 255 , 255)&quot;&gt;&quot;operate_time&quot;&lt;/span&gt;&lt;br style=&quot;box-sizing: border-box ; color: rgb(74 , 85 , 96) ; background-color: rgb(255 , 255 , 255)&quot;&gt;&lt;span style=&quot;color: rgb(74 , 85 , 96) ; background-color: rgb(255 , 255 , 255)&quot;&gt;}&lt;/span&gt;&lt;br&gt;&lt;/font&gt;&lt;br&gt;【&lt;b&gt;表级别&lt;/b&gt;】：&lt;br&gt;&amp;nbsp; 路径：/galaxy3/***_bao_sdb_crm_task/realtime/es7/1270&lt;br&gt;&amp;nbsp; 取值：{&quot;closeDelete&quot;:true,&quot;clusterName&quot;:&quot;es-common&quot;,&quot;dbName&quot;:&quot;***_dev&quot;,&quot;deleteGroupId&quot;:&quot;galaxy-***_bao_sdb_crm_task-es7-realtime-1270_del&quot;,&quot;deleteTopic&quot;:&quot;***_bao_sdb_crm_task_del&quot;,&quot;groupId&quot;:&quot;galaxy-***_bao_sdb_crm_task-es7-realtime-1270&quot;,&quot;idColumns&quot;:[&quot;id&quot;],&quot;index&quot;:&quot;***_bao_sdb_crm_task_ext_query&quot;,&quot;indexType&quot;:&quot;detail&quot;,&quot;jsonColumns&quot;:[&quot;ext&quot;],&quot;kfkTopic&quot;:&quot;***_bao_sdb_crm_task&quot;,&quot;pkRuleId&quot;:2,&quot;sendDelete&quot;:false,&quot;table&quot;:&quot;sdb_crm_task&quot;,&quot;updateTimeColumn&quot;:&quot;update_time&quot;" style="shape=note;whiteSpace=wrap;html=1;backgroundOutline=1;darkOpacity=0.05;align=left;fillColor=#ffff88;strokeColor=#36393d;" parent="1" vertex="1">
          <mxGeometry x="-245" y="-460" width="800" height="560" as="geometry" />
        </mxCell>
        <mxCell id="rasIPgpJ51-KkkW6Vn-_-90" value="zk" style="ellipse;shape=cloud;whiteSpace=wrap;html=1;fillColor=#647687;strokeColor=#314354;fontColor=#ffffff;" parent="1" vertex="1">
          <mxGeometry x="1160" y="295" width="140" height="65" as="geometry" />
        </mxCell>
        <mxCell id="rasIPgpJ51-KkkW6Vn-_-91" value="1. 实时同步数据时，由 sendDelete = true 参数控制，将 delete 的增量数据，写入到 _del；&lt;br&gt;2. 非delete的增量数据，实时消费写入es;&lt;br&gt;3. 当存量数据完成同步至es后，通过接口回调修改 sendDelete = false，往 _del 中发送结束标志：endFlag, 同时启动对 _del 的消费;&lt;br&gt;4. 当消费到 endFlag 标志时，关闭消费者，同时回调di接口，修改&amp;nbsp;&lt;span style=&quot;color: rgb(146 , 39 , 143) ; font-size: 6px ; font-weight: 700 ; background-color: rgb(255 , 255 , 255)&quot;&gt;closeDelete = true&lt;/span&gt;" style="shape=note;whiteSpace=wrap;html=1;backgroundOutline=1;darkOpacity=0.05;align=left;fillColor=#ffff88;strokeColor=#36393d;" parent="1" vertex="1">
          <mxGeometry x="1890" y="165" width="520" height="85" as="geometry" />
        </mxCell>
        <mxCell id="rasIPgpJ51-KkkW6Vn-_-93" value="" style="endArrow=classic;html=1;strokeColor=#000000;entryX=0.5;entryY=1;entryDx=0;entryDy=0;dashed=1;exitX=0.625;exitY=0.2;exitDx=0;exitDy=0;exitPerimeter=0;" parent="1" source="rasIPgpJ51-KkkW6Vn-_-90" target="rasIPgpJ51-KkkW6Vn-_-21" edge="1">
          <mxGeometry width="50" height="50" relative="1" as="geometry">
            <mxPoint x="1247.5" y="263" as="sourcePoint" />
            <mxPoint x="1200" y="240" as="targetPoint" />
          </mxGeometry>
        </mxCell>
        <mxCell id="rasIPgpJ51-KkkW6Vn-_-100" value="监听：节点值变化" style="edgeLabel;html=1;align=center;verticalAlign=middle;resizable=0;points=[];" parent="rasIPgpJ51-KkkW6Vn-_-93" vertex="1" connectable="0">
          <mxGeometry x="-0.0845" y="-1" relative="1" as="geometry">
            <mxPoint x="8" y="-8" as="offset" />
          </mxGeometry>
        </mxCell>
        <mxCell id="rasIPgpJ51-KkkW6Vn-_-94" value="监听：节点值变化" style="endArrow=classic;html=1;strokeColor=#000000;exitX=0.55;exitY=0.95;exitDx=0;exitDy=0;exitPerimeter=0;entryX=0.5;entryY=0;entryDx=0;entryDy=0;dashed=1;" parent="1" source="rasIPgpJ51-KkkW6Vn-_-90" target="rasIPgpJ51-KkkW6Vn-_-47" edge="1">
          <mxGeometry x="-0.0063" y="11" width="50" height="50" relative="1" as="geometry">
            <mxPoint x="1237" y="416.75" as="sourcePoint" />
            <mxPoint x="1310" y="335" as="targetPoint" />
            <mxPoint as="offset" />
          </mxGeometry>
        </mxCell>
        <mxCell id="rasIPgpJ51-KkkW6Vn-_-95" value="&lt;div&gt;&lt;/div&gt;&lt;div&gt;&lt;b&gt;&lt;font color=&quot;#ff3333&quot;&gt;TIDB&lt;/font&gt;&lt;/b&gt;&lt;/div&gt;&lt;div&gt;&lt;b&gt;&lt;font color=&quot;#ff3333&quot;&gt;&lt;br&gt;&lt;/font&gt;&lt;/b&gt;&lt;/div&gt;&lt;div&gt;【库级别】：&lt;/div&gt;&lt;div&gt;&lt;span&gt;&lt;/span&gt;&amp;nbsp; &amp;nbsp;路径：/galaxy3/***_bao/slow/TiDB&lt;/div&gt;&lt;div&gt;&lt;span&gt;&lt;/span&gt;&amp;nbsp; &amp;nbsp;取值：&lt;/div&gt;&lt;div&gt;&lt;font style=&quot;font-size: 6px&quot;&gt;&lt;span style=&quot;color: rgb(74 , 85 , 96) ; font-family: &amp;#34;menlo&amp;#34; , monospace , &amp;#34;tahoma&amp;#34; , , ; background-color: rgb(255 , 255 , 255)&quot;&gt;{&lt;/span&gt;&lt;br style=&quot;box-sizing: border-box ; color: rgb(74 , 85 , 96) ; font-family: &amp;#34;menlo&amp;#34; , monospace , &amp;#34;tahoma&amp;#34; , , ; background-color: rgb(255 , 255 , 255)&quot;&gt;&lt;span style=&quot;color: rgb(74 , 85 , 96) ; font-family: &amp;#34;menlo&amp;#34; , monospace , &amp;#34;tahoma&amp;#34; , , ; background-color: rgb(255 , 255 , 255)&quot;&gt;&amp;nbsp;&amp;nbsp;&amp;nbsp;&amp;nbsp;&lt;/span&gt;&lt;span class=&quot;json_key&quot; style=&quot;box-sizing: border-box ; color: rgb(146 , 39 , 143) ; font-weight: bold ; font-family: &amp;#34;menlo&amp;#34; , monospace , &amp;#34;tahoma&amp;#34; , , ; background-color: rgb(255 , 255 , 255)&quot;&gt;&quot;errGroupId&quot;&lt;/span&gt;&lt;span style=&quot;color: rgb(74 , 85 , 96) ; font-family: &amp;#34;menlo&amp;#34; , monospace , &amp;#34;tahoma&amp;#34; , , ; background-color: rgb(255 , 255 , 255)&quot;&gt;:&lt;/span&gt;&lt;span class=&quot;json_string&quot; style=&quot;box-sizing: border-box ; color: rgb(58 , 181 , 74) ; font-weight: bold ; font-family: &amp;#34;menlo&amp;#34; , monospace , &amp;#34;tahoma&amp;#34; , , ; background-color: rgb(255 , 255 , 255)&quot;&gt;&quot;galaxy-***_bao-TiDB-slow_err_retry&quot;&lt;/span&gt;&lt;span style=&quot;color: rgb(74 , 85 , 96) ; font-family: &amp;#34;menlo&amp;#34; , monospace , &amp;#34;tahoma&amp;#34; , , ; background-color: rgb(255 , 255 , 255)&quot;&gt;,&lt;/span&gt;&lt;br style=&quot;box-sizing: border-box ; color: rgb(74 , 85 , 96) ; font-family: &amp;#34;menlo&amp;#34; , monospace , &amp;#34;tahoma&amp;#34; , , ; background-color: rgb(255 , 255 , 255)&quot;&gt;&lt;span style=&quot;color: rgb(74 , 85 , 96) ; font-family: &amp;#34;menlo&amp;#34; , monospace , &amp;#34;tahoma&amp;#34; , , ; background-color: rgb(255 , 255 , 255)&quot;&gt;&amp;nbsp;&amp;nbsp;&amp;nbsp;&amp;nbsp;&lt;/span&gt;&lt;span class=&quot;json_key&quot; style=&quot;box-sizing: border-box ; color: rgb(146 , 39 , 143) ; font-weight: bold ; font-family: &amp;#34;menlo&amp;#34; , monospace , &amp;#34;tahoma&amp;#34; , , ; background-color: rgb(255 , 255 , 255)&quot;&gt;&quot;errTopic&quot;&lt;/span&gt;&lt;span style=&quot;color: rgb(74 , 85 , 96) ; font-family: &amp;#34;menlo&amp;#34; , monospace , &amp;#34;tahoma&amp;#34; , , ; background-color: rgb(255 , 255 , 255)&quot;&gt;:&lt;/span&gt;&lt;span class=&quot;json_string&quot; style=&quot;box-sizing: border-box ; color: rgb(58 , 181 , 74) ; font-weight: bold ; font-family: &amp;#34;menlo&amp;#34; , monospace , &amp;#34;tahoma&amp;#34; , , ; background-color: rgb(255 , 255 , 255)&quot;&gt;&quot;***_bao_galaxy_err_tiDB&quot;&lt;/span&gt;&lt;span style=&quot;color: rgb(74 , 85 , 96) ; font-family: &amp;#34;menlo&amp;#34; , monospace , &amp;#34;tahoma&amp;#34; , , ; background-color: rgb(255 , 255 , 255)&quot;&gt;,&lt;/span&gt;&lt;br style=&quot;box-sizing: border-box ; color: rgb(74 , 85 , 96) ; font-family: &amp;#34;menlo&amp;#34; , monospace , &amp;#34;tahoma&amp;#34; , , ; background-color: rgb(255 , 255 , 255)&quot;&gt;&lt;span style=&quot;color: rgb(74 , 85 , 96) ; font-family: &amp;#34;menlo&amp;#34; , monospace , &amp;#34;tahoma&amp;#34; , , ; background-color: rgb(255 , 255 , 255)&quot;&gt;&amp;nbsp;&amp;nbsp;&amp;nbsp;&amp;nbsp;&lt;/span&gt;&lt;span class=&quot;json_key&quot; style=&quot;box-sizing: border-box ; color: rgb(146 , 39 , 143) ; font-weight: bold ; font-family: &amp;#34;menlo&amp;#34; , monospace , &amp;#34;tahoma&amp;#34; , , ; background-color: rgb(255 , 255 , 255)&quot;&gt;&quot;groupId&quot;&lt;/span&gt;&lt;span style=&quot;color: rgb(74 , 85 , 96) ; font-family: &amp;#34;menlo&amp;#34; , monospace , &amp;#34;tahoma&amp;#34; , , ; background-color: rgb(255 , 255 , 255)&quot;&gt;:&lt;/span&gt;&lt;span class=&quot;json_string&quot; style=&quot;box-sizing: border-box ; color: rgb(58 , 181 , 74) ; font-weight: bold ; font-family: &amp;#34;menlo&amp;#34; , monospace , &amp;#34;tahoma&amp;#34; , , ; background-color: rgb(255 , 255 , 255)&quot;&gt;&quot;galaxy-***_bao-TiDB-slow&quot;&lt;/span&gt;&lt;span style=&quot;color: rgb(74 , 85 , 96) ; font-family: &amp;#34;menlo&amp;#34; , monospace , &amp;#34;tahoma&amp;#34; , , ; background-color: rgb(255 , 255 , 255)&quot;&gt;,&lt;/span&gt;&lt;br style=&quot;box-sizing: border-box ; color: rgb(74 , 85 , 96) ; font-family: &amp;#34;menlo&amp;#34; , monospace , &amp;#34;tahoma&amp;#34; , , ; background-color: rgb(255 , 255 , 255)&quot;&gt;&lt;span style=&quot;color: rgb(74 , 85 , 96) ; font-family: &amp;#34;menlo&amp;#34; , monospace , &amp;#34;tahoma&amp;#34; , , ; background-color: rgb(255 , 255 , 255)&quot;&gt;&amp;nbsp;&amp;nbsp;&amp;nbsp;&amp;nbsp;&lt;/span&gt;&lt;span class=&quot;json_key&quot; style=&quot;box-sizing: border-box ; color: rgb(146 , 39 , 143) ; font-weight: bold ; font-family: &amp;#34;menlo&amp;#34; , monospace , &amp;#34;tahoma&amp;#34; , , ; background-color: rgb(255 , 255 , 255)&quot;&gt;&quot;kfkTopic&quot;&lt;/span&gt;&lt;span style=&quot;color: rgb(74 , 85 , 96) ; font-family: &amp;#34;menlo&amp;#34; , monospace , &amp;#34;tahoma&amp;#34; , , ; background-color: rgb(255 , 255 , 255)&quot;&gt;:&lt;/span&gt;&lt;span class=&quot;json_string&quot; style=&quot;box-sizing: border-box ; color: rgb(58 , 181 , 74) ; font-weight: bold ; font-family: &amp;#34;menlo&amp;#34; , monospace , &amp;#34;tahoma&amp;#34; , , ; background-color: rgb(255 , 255 , 255)&quot;&gt;&quot;***_bao&quot;&lt;/span&gt;&lt;span style=&quot;color: rgb(74 , 85 , 96) ; font-family: &amp;#34;menlo&amp;#34; , monospace , &amp;#34;tahoma&amp;#34; , , ; background-color: rgb(255 , 255 , 255)&quot;&gt;,&lt;/span&gt;&lt;br style=&quot;box-sizing: border-box ; color: rgb(74 , 85 , 96) ; font-family: &amp;#34;menlo&amp;#34; , monospace , &amp;#34;tahoma&amp;#34; , , ; background-color: rgb(255 , 255 , 255)&quot;&gt;&lt;span style=&quot;color: rgb(74 , 85 , 96) ; font-family: &amp;#34;menlo&amp;#34; , monospace , &amp;#34;tahoma&amp;#34; , , ; background-color: rgb(255 , 255 , 255)&quot;&gt;&amp;nbsp;&amp;nbsp;&amp;nbsp;&amp;nbsp;&lt;/span&gt;&lt;span class=&quot;json_key&quot; style=&quot;box-sizing: border-box ; color: rgb(146 , 39 , 143) ; font-weight: bold ; font-family: &amp;#34;menlo&amp;#34; , monospace , &amp;#34;tahoma&amp;#34; , , ; background-color: rgb(255 , 255 , 255)&quot;&gt;&quot;supTopic&quot;&lt;/span&gt;&lt;span style=&quot;color: rgb(74 , 85 , 96) ; font-family: &amp;#34;menlo&amp;#34; , monospace , &amp;#34;tahoma&amp;#34; , , ; background-color: rgb(255 , 255 , 255)&quot;&gt;:&lt;/span&gt;&lt;span class=&quot;json_string&quot; style=&quot;box-sizing: border-box ; color: rgb(58 , 181 , 74) ; font-weight: bold ; font-family: &amp;#34;menlo&amp;#34; , monospace , &amp;#34;tahoma&amp;#34; , , ; background-color: rgb(255 , 255 , 255)&quot;&gt;&quot;***_bao_galaxy_sup&quot;&lt;/span&gt;&lt;br style=&quot;box-sizing: border-box ; color: rgb(74 , 85 , 96) ; font-family: &amp;#34;menlo&amp;#34; , monospace , &amp;#34;tahoma&amp;#34; , , ; background-color: rgb(255 , 255 , 255)&quot;&gt;&lt;span style=&quot;color: rgb(74 , 85 , 96) ; font-family: &amp;#34;menlo&amp;#34; , monospace , &amp;#34;tahoma&amp;#34; , , ; background-color: rgb(255 , 255 , 255)&quot;&gt;}&lt;/span&gt;&lt;/font&gt;&lt;br&gt;&lt;/div&gt;&lt;div&gt;&lt;br&gt;&lt;/div&gt;&lt;div&gt;&lt;span&gt;&lt;/span&gt;&amp;nbsp; #【任务级别】：&lt;/div&gt;&lt;div&gt;&lt;span&gt;&lt;/span&gt;&amp;nbsp; &amp;nbsp; &amp;nbsp; &amp;nbsp;路径：/galaxy3/***_bao/slow/TiDB/1210&lt;/div&gt;&lt;div&gt;&lt;span&gt;&lt;/span&gt;&amp;nbsp; &amp;nbsp; &amp;nbsp; &amp;nbsp;取值：&lt;/div&gt;&lt;div&gt;&lt;font style=&quot;font-size: 6px&quot;&gt;&lt;span class=&quot;fa fa-minus-square-o&quot; style=&quot;box-sizing: border-box ; display: inline-block ; font-stretch: normal ; line-height: 1 ; font-family: &amp;#34;fontawesome&amp;#34; ; color: rgb(74 , 85 , 96) ; background-color: rgb(255 , 255 , 255) ; cursor: pointer&quot;&gt;&lt;/span&gt;&lt;span style=&quot;color: rgb(74 , 85 , 96) ; font-family: &amp;#34;menlo&amp;#34; , monospace , &amp;#34;tahoma&amp;#34; , , ; background-color: rgb(255 , 255 , 255)&quot;&gt;{&lt;/span&gt;&lt;br style=&quot;box-sizing: border-box ; color: rgb(74 , 85 , 96) ; font-family: &amp;#34;menlo&amp;#34; , monospace , &amp;#34;tahoma&amp;#34; , , ; background-color: rgb(255 , 255 , 255)&quot;&gt;&lt;span style=&quot;color: rgb(74 , 85 , 96) ; font-family: &amp;#34;menlo&amp;#34; , monospace , &amp;#34;tahoma&amp;#34; , , ; background-color: rgb(255 , 255 , 255)&quot;&gt;&amp;nbsp;&amp;nbsp;&amp;nbsp;&amp;nbsp;&lt;/span&gt;&lt;span class=&quot;json_key&quot; style=&quot;box-sizing: border-box ; color: rgb(146 , 39 , 143) ; font-weight: bold ; font-family: &amp;#34;menlo&amp;#34; , monospace , &amp;#34;tahoma&amp;#34; , , ; background-color: rgb(255 , 255 , 255)&quot;&gt;&quot;closeSupConsumer&quot;&lt;/span&gt;&lt;span style=&quot;color: rgb(74 , 85 , 96) ; font-family: &amp;#34;menlo&amp;#34; , monospace , &amp;#34;tahoma&amp;#34; , , ; background-color: rgb(255 , 255 , 255)&quot;&gt;:&lt;/span&gt;&lt;span class=&quot;json_boolean&quot; style=&quot;box-sizing: border-box ; color: rgb(249 , 130 , 128) ; font-weight: bold ; font-family: &amp;#34;menlo&amp;#34; , monospace , &amp;#34;tahoma&amp;#34; , , ; background-color: rgb(255 , 255 , 255)&quot;&gt;true&lt;/span&gt;&lt;span style=&quot;color: rgb(74 , 85 , 96) ; font-family: &amp;#34;menlo&amp;#34; , monospace , &amp;#34;tahoma&amp;#34; , , ; background-color: rgb(255 , 255 , 255)&quot;&gt;,&amp;nbsp;&lt;/span&gt;&amp;nbsp;// 关闭对 _sup 的消费&lt;br style=&quot;box-sizing: border-box ; color: rgb(74 , 85 , 96) ; font-family: &amp;#34;menlo&amp;#34; , monospace , &amp;#34;tahoma&amp;#34; , , ; background-color: rgb(255 , 255 , 255)&quot;&gt;&lt;span style=&quot;color: rgb(74 , 85 , 96) ; font-family: &amp;#34;menlo&amp;#34; , monospace , &amp;#34;tahoma&amp;#34; , , ; background-color: rgb(255 , 255 , 255)&quot;&gt;&amp;nbsp;&amp;nbsp;&amp;nbsp;&amp;nbsp;&lt;/span&gt;&lt;span class=&quot;json_key&quot; style=&quot;box-sizing: border-box ; color: rgb(146 , 39 , 143) ; font-weight: bold ; font-family: &amp;#34;menlo&amp;#34; , monospace , &amp;#34;tahoma&amp;#34; , , ; background-color: rgb(255 , 255 , 255)&quot;&gt;&quot;clusterName&quot;&lt;/span&gt;&lt;span style=&quot;color: rgb(74 , 85 , 96) ; font-family: &amp;#34;menlo&amp;#34; , monospace , &amp;#34;tahoma&amp;#34; , , ; background-color: rgb(255 , 255 , 255)&quot;&gt;:&lt;/span&gt;&lt;span class=&quot;json_string&quot; style=&quot;box-sizing: border-box ; color: rgb(58 , 181 , 74) ; font-weight: bold ; font-family: &amp;#34;menlo&amp;#34; , monospace , &amp;#34;tahoma&amp;#34; , , ; background-color: rgb(255 , 255 , 255)&quot;&gt;&quot;TiDB-sdb-prism&quot;&lt;/span&gt;&lt;span style=&quot;color: rgb(74 , 85 , 96) ; font-family: &amp;#34;menlo&amp;#34; , monospace , &amp;#34;tahoma&amp;#34; , , ; background-color: rgb(255 , 255 , 255)&quot;&gt;,&lt;/span&gt;&lt;br style=&quot;box-sizing: border-box ; color: rgb(74 , 85 , 96) ; font-family: &amp;#34;menlo&amp;#34; , monospace , &amp;#34;tahoma&amp;#34; , , ; background-color: rgb(255 , 255 , 255)&quot;&gt;&lt;span style=&quot;color: rgb(74 , 85 , 96) ; font-family: &amp;#34;menlo&amp;#34; , monospace , &amp;#34;tahoma&amp;#34; , , ; background-color: rgb(255 , 255 , 255)&quot;&gt;&amp;nbsp;&amp;nbsp;&amp;nbsp;&amp;nbsp;&lt;/span&gt;&lt;span class=&quot;json_key&quot; style=&quot;box-sizing: border-box ; color: rgb(146 , 39 , 143) ; font-weight: bold ; font-family: &amp;#34;menlo&amp;#34; , monospace , &amp;#34;tahoma&amp;#34; , , ; background-color: rgb(255 , 255 , 255)&quot;&gt;&quot;dbName&quot;&lt;/span&gt;&lt;span style=&quot;color: rgb(74 , 85 , 96) ; font-family: &amp;#34;menlo&amp;#34; , monospace , &amp;#34;tahoma&amp;#34; , , ; background-color: rgb(255 , 255 , 255)&quot;&gt;:&lt;/span&gt;&lt;span class=&quot;json_string&quot; style=&quot;box-sizing: border-box ; color: rgb(58 , 181 , 74) ; font-weight: bold ; font-family: &amp;#34;menlo&amp;#34; , monospace , &amp;#34;tahoma&amp;#34; , , ; background-color: rgb(255 , 255 , 255)&quot;&gt;&quot;***_dev&quot;&lt;/span&gt;&lt;span style=&quot;color: rgb(74 , 85 , 96) ; font-family: &amp;#34;menlo&amp;#34; , monospace , &amp;#34;tahoma&amp;#34; , , ; background-color: rgb(255 , 255 , 255)&quot;&gt;,&lt;/span&gt;&lt;br style=&quot;box-sizing: border-box ; color: rgb(74 , 85 , 96) ; font-family: &amp;#34;menlo&amp;#34; , monospace , &amp;#34;tahoma&amp;#34; , , ; background-color: rgb(255 , 255 , 255)&quot;&gt;&lt;span style=&quot;color: rgb(74 , 85 , 96) ; font-family: &amp;#34;menlo&amp;#34; , monospace , &amp;#34;tahoma&amp;#34; , , ; background-color: rgb(255 , 255 , 255)&quot;&gt;&amp;nbsp;&amp;nbsp;&amp;nbsp;&amp;nbsp;&lt;/span&gt;&lt;span class=&quot;json_key&quot; style=&quot;box-sizing: border-box ; color: rgb(146 , 39 , 143) ; font-weight: bold ; font-family: &amp;#34;menlo&amp;#34; , monospace , &amp;#34;tahoma&amp;#34; , , ; background-color: rgb(255 , 255 , 255)&quot;&gt;&quot;historyTaskRunning&quot;&lt;/span&gt;&lt;span style=&quot;color: rgb(74 , 85 , 96) ; font-family: &amp;#34;menlo&amp;#34; , monospace , &amp;#34;tahoma&amp;#34; , , ; background-color: rgb(255 , 255 , 255)&quot;&gt;:&lt;/span&gt;&lt;span class=&quot;json_boolean&quot; style=&quot;box-sizing: border-box ; color: rgb(249 , 130 , 128) ; font-weight: bold ; font-family: &amp;#34;menlo&amp;#34; , monospace , &amp;#34;tahoma&amp;#34; , , ; background-color: rgb(255 , 255 , 255)&quot;&gt;false&lt;/span&gt;&lt;span style=&quot;color: rgb(74 , 85 , 96) ; font-family: &amp;#34;menlo&amp;#34; , monospace , &amp;#34;tahoma&amp;#34; , , ; background-color: rgb(255 , 255 , 255)&quot;&gt;,&amp;nbsp;&lt;/span&gt;// 存量任务是否在运行中&lt;br style=&quot;box-sizing: border-box ; color: rgb(74 , 85 , 96) ; font-family: &amp;#34;menlo&amp;#34; , monospace , &amp;#34;tahoma&amp;#34; , , ; background-color: rgb(255 , 255 , 255)&quot;&gt;&lt;span style=&quot;color: rgb(74 , 85 , 96) ; font-family: &amp;#34;menlo&amp;#34; , monospace , &amp;#34;tahoma&amp;#34; , , ; background-color: rgb(255 , 255 , 255)&quot;&gt;&amp;nbsp;&amp;nbsp;&amp;nbsp;&amp;nbsp;&lt;/span&gt;&lt;span class=&quot;json_key&quot; style=&quot;box-sizing: border-box ; color: rgb(146 , 39 , 143) ; font-weight: bold ; font-family: &amp;#34;menlo&amp;#34; , monospace , &amp;#34;tahoma&amp;#34; , , ; background-color: rgb(255 , 255 , 255)&quot;&gt;&quot;source&quot;&lt;/span&gt;&lt;span style=&quot;color: rgb(74 , 85 , 96) ; font-family: &amp;#34;menlo&amp;#34; , monospace , &amp;#34;tahoma&amp;#34; , , ; background-color: rgb(255 , 255 , 255)&quot;&gt;:&lt;/span&gt;&lt;span style=&quot;box-sizing: border-box ; color: rgb(74 , 85 , 96) ; font-family: &amp;#34;menlo&amp;#34; , monospace , &amp;#34;tahoma&amp;#34; , , ; background-color: rgb(255 , 255 , 255)&quot;&gt;&lt;span class=&quot;fa fa-minus-square-o&quot; style=&quot;box-sizing: border-box ; display: inline-block ; font-stretch: normal ; line-height: 1 ; font-family: &amp;#34;fontawesome&amp;#34; ; cursor: pointer&quot;&gt;&lt;/span&gt;{&lt;br style=&quot;box-sizing: border-box&quot;&gt;&amp;nbsp;&amp;nbsp;&amp;nbsp;&amp;nbsp;&amp;nbsp;&amp;nbsp;&amp;nbsp;&amp;nbsp;&lt;span class=&quot;json_key&quot; style=&quot;box-sizing: border-box ; color: rgb(146 , 39 , 143) ; font-weight: bold&quot;&gt;&quot;password&quot;&lt;/span&gt;:&lt;span class=&quot;json_string&quot; style=&quot;box-sizing: border-box ; color: rgb(58 , 181 , 74) ; font-weight: bold&quot;&gt;&quot;***&quot;&lt;/span&gt;,&lt;br style=&quot;box-sizing: border-box&quot;&gt;&amp;nbsp;&amp;nbsp;&amp;nbsp;&amp;nbsp;&amp;nbsp;&amp;nbsp;&amp;nbsp;&amp;nbsp;&lt;span class=&quot;json_key&quot; style=&quot;box-sizing: border-box ; color: rgb(146 , 39 , 143) ; font-weight: bold&quot;&gt;&quot;updateColumn&quot;&lt;/span&gt;:&lt;span class=&quot;json_string&quot; style=&quot;box-sizing: border-box ; color: rgb(58 , 181 , 74) ; font-weight: bold&quot;&gt;&quot;operate_time&quot;&lt;/span&gt;,&lt;br style=&quot;box-sizing: border-box&quot;&gt;&amp;nbsp;&amp;nbsp;&amp;nbsp;&amp;nbsp;&amp;nbsp;&amp;nbsp;&amp;nbsp;&amp;nbsp;&lt;span class=&quot;json_key&quot; style=&quot;box-sizing: border-box ; color: rgb(146 , 39 , 143) ; font-weight: bold&quot;&gt;&quot;url&quot;&lt;/span&gt;:&lt;span class=&quot;json_string&quot; style=&quot;box-sizing: border-box ; color: rgb(58 , 181 , 74) ; font-weight: bold&quot;&gt;&quot;***&quot;&lt;/span&gt;,&lt;br style=&quot;box-sizing: border-box&quot;&gt;&amp;nbsp;&amp;nbsp;&amp;nbsp;&amp;nbsp;&amp;nbsp;&amp;nbsp;&amp;nbsp;&amp;nbsp;&lt;span class=&quot;json_key&quot; style=&quot;box-sizing: border-box ; color: rgb(146 , 39 , 143) ; font-weight: bold&quot;&gt;&quot;username&quot;&lt;/span&gt;:&lt;span class=&quot;json_string&quot; style=&quot;box-sizing: border-box ; color: rgb(58 , 181 , 74) ; font-weight: bold&quot;&gt;&quot;test_canal_r&quot;&lt;/span&gt;&lt;br style=&quot;box-sizing: border-box&quot;&gt;&amp;nbsp;&amp;nbsp;&amp;nbsp;&amp;nbsp;}&lt;/span&gt;&lt;span style=&quot;color: rgb(74 , 85 , 96) ; font-family: &amp;#34;menlo&amp;#34; , monospace , &amp;#34;tahoma&amp;#34; , , ; background-color: rgb(255 , 255 , 255)&quot;&gt;,&lt;/span&gt;&lt;br style=&quot;box-sizing: border-box ; color: rgb(74 , 85 , 96) ; font-family: &amp;#34;menlo&amp;#34; , monospace , &amp;#34;tahoma&amp;#34; , , ; background-color: rgb(255 , 255 , 255)&quot;&gt;&lt;span style=&quot;color: rgb(74 , 85 , 96) ; font-family: &amp;#34;menlo&amp;#34; , monospace , &amp;#34;tahoma&amp;#34; , , ; background-color: rgb(255 , 255 , 255)&quot;&gt;&amp;nbsp;&amp;nbsp;&amp;nbsp;&amp;nbsp;&lt;/span&gt;&lt;span class=&quot;json_key&quot; style=&quot;box-sizing: border-box ; color: rgb(146 , 39 , 143) ; font-weight: bold ; font-family: &amp;#34;menlo&amp;#34; , monospace , &amp;#34;tahoma&amp;#34; , , ; background-color: rgb(255 , 255 , 255)&quot;&gt;&quot;supGroupId&quot;&lt;/span&gt;&lt;span style=&quot;color: rgb(74 , 85 , 96) ; font-family: &amp;#34;menlo&amp;#34; , monospace , &amp;#34;tahoma&amp;#34; , , ; background-color: rgb(255 , 255 , 255)&quot;&gt;:&lt;/span&gt;&lt;span class=&quot;json_string&quot; style=&quot;box-sizing: border-box ; color: rgb(58 , 181 , 74) ; font-weight: bold ; font-family: &amp;#34;menlo&amp;#34; , monospace , &amp;#34;tahoma&amp;#34; , , ; background-color: rgb(255 , 255 , 255)&quot;&gt;&quot;galaxy-***_bao-TiDB-slow-1210_sup&quot;&lt;/span&gt;&lt;span style=&quot;color: rgb(74 , 85 , 96) ; font-family: &amp;#34;menlo&amp;#34; , monospace , &amp;#34;tahoma&amp;#34; , , ; background-color: rgb(255 , 255 , 255)&quot;&gt;,&lt;/span&gt;&lt;br style=&quot;box-sizing: border-box ; color: rgb(74 , 85 , 96) ; font-family: &amp;#34;menlo&amp;#34; , monospace , &amp;#34;tahoma&amp;#34; , , ; background-color: rgb(255 , 255 , 255)&quot;&gt;&lt;span style=&quot;color: rgb(74 , 85 , 96) ; font-family: &amp;#34;menlo&amp;#34; , monospace , &amp;#34;tahoma&amp;#34; , , ; background-color: rgb(255 , 255 , 255)&quot;&gt;&amp;nbsp;&amp;nbsp;&amp;nbsp;&amp;nbsp;&lt;/span&gt;&lt;span class=&quot;json_key&quot; style=&quot;box-sizing: border-box ; color: rgb(146 , 39 , 143) ; font-weight: bold ; font-family: &amp;#34;menlo&amp;#34; , monospace , &amp;#34;tahoma&amp;#34; , , ; background-color: rgb(255 , 255 , 255)&quot;&gt;&quot;table&quot;&lt;/span&gt;&lt;span style=&quot;color: rgb(74 , 85 , 96) ; font-family: &amp;#34;menlo&amp;#34; , monospace , &amp;#34;tahoma&amp;#34; , , ; background-color: rgb(255 , 255 , 255)&quot;&gt;:&lt;/span&gt;&lt;span class=&quot;json_string&quot; style=&quot;box-sizing: border-box ; color: rgb(58 , 181 , 74) ; font-weight: bold ; font-family: &amp;#34;menlo&amp;#34; , monospace , &amp;#34;tahoma&amp;#34; , , ; background-color: rgb(255 , 255 , 255)&quot;&gt;&quot;***&quot;&lt;/span&gt;&lt;span style=&quot;color: rgb(74 , 85 , 96) ; font-family: &amp;#34;menlo&amp;#34; , monospace , &amp;#34;tahoma&amp;#34; , , ; background-color: rgb(255 , 255 , 255)&quot;&gt;,&lt;/span&gt;&lt;br style=&quot;box-sizing: border-box ; color: rgb(74 , 85 , 96) ; font-family: &amp;#34;menlo&amp;#34; , monospace , &amp;#34;tahoma&amp;#34; , , ; background-color: rgb(255 , 255 , 255)&quot;&gt;&lt;span style=&quot;color: rgb(74 , 85 , 96) ; font-family: &amp;#34;menlo&amp;#34; , monospace , &amp;#34;tahoma&amp;#34; , , ; background-color: rgb(255 , 255 , 255)&quot;&gt;&amp;nbsp;&amp;nbsp;&amp;nbsp;&amp;nbsp;&lt;/span&gt;&lt;span class=&quot;json_key&quot; style=&quot;box-sizing: border-box ; color: rgb(146 , 39 , 143) ; font-weight: bold ; font-family: &amp;#34;menlo&amp;#34; , monospace , &amp;#34;tahoma&amp;#34; , , ; background-color: rgb(255 , 255 , 255)&quot;&gt;&quot;tiDBName&quot;&lt;/span&gt;&lt;span style=&quot;color: rgb(74 , 85 , 96) ; font-family: &amp;#34;menlo&amp;#34; , monospace , &amp;#34;tahoma&amp;#34; , , ; background-color: rgb(255 , 255 , 255)&quot;&gt;:&lt;/span&gt;&lt;span class=&quot;json_string&quot; style=&quot;box-sizing: border-box ; color: rgb(58 , 181 , 74) ; font-weight: bold ; font-family: &amp;#34;menlo&amp;#34; , monospace , &amp;#34;tahoma&amp;#34; , , ; background-color: rgb(255 , 255 , 255)&quot;&gt;&quot;***&quot;&lt;/span&gt;&lt;span style=&quot;color: rgb(74 , 85 , 96) ; font-family: &amp;#34;menlo&amp;#34; , monospace , &amp;#34;tahoma&amp;#34; , , ; background-color: rgb(255 , 255 , 255)&quot;&gt;,&lt;/span&gt;&lt;br style=&quot;box-sizing: border-box ; color: rgb(74 , 85 , 96) ; font-family: &amp;#34;menlo&amp;#34; , monospace , &amp;#34;tahoma&amp;#34; , , ; background-color: rgb(255 , 255 , 255)&quot;&gt;&lt;span style=&quot;color: rgb(74 , 85 , 96) ; font-family: &amp;#34;menlo&amp;#34; , monospace , &amp;#34;tahoma&amp;#34; , , ; background-color: rgb(255 , 255 , 255)&quot;&gt;&amp;nbsp;&amp;nbsp;&amp;nbsp;&amp;nbsp;&lt;/span&gt;&lt;span class=&quot;json_key&quot; style=&quot;box-sizing: border-box ; color: rgb(146 , 39 , 143) ; font-weight: bold ; font-family: &amp;#34;menlo&amp;#34; , monospace , &amp;#34;tahoma&amp;#34; , , ; background-color: rgb(255 , 255 , 255)&quot;&gt;&quot;tiDBTableName&quot;&lt;/span&gt;&lt;span style=&quot;color: rgb(74 , 85 , 96) ; font-family: &amp;#34;menlo&amp;#34; , monospace , &amp;#34;tahoma&amp;#34; , , ; background-color: rgb(255 , 255 , 255)&quot;&gt;:&lt;/span&gt;&lt;span class=&quot;json_string&quot; style=&quot;box-sizing: border-box ; color: rgb(58 , 181 , 74) ; font-weight: bold ; font-family: &amp;#34;menlo&amp;#34; , monospace , &amp;#34;tahoma&amp;#34; , , ; background-color: rgb(255 , 255 , 255)&quot;&gt;&quot;***&quot;&lt;/span&gt;&lt;br style=&quot;box-sizing: border-box ; color: rgb(74 , 85 , 96) ; font-family: &amp;#34;menlo&amp;#34; , monospace , &amp;#34;tahoma&amp;#34; , , ; background-color: rgb(255 , 255 , 255)&quot;&gt;&lt;span style=&quot;color: rgb(74 , 85 , 96) ; font-family: &amp;#34;menlo&amp;#34; , monospace , &amp;#34;tahoma&amp;#34; , , ; background-color: rgb(255 , 255 , 255)&quot;&gt;}&lt;/span&gt;&lt;/font&gt;&lt;br&gt;&lt;/div&gt;&lt;div&gt;&lt;br&gt;&lt;/div&gt;&lt;div&gt;【表级别】：&lt;/div&gt;&lt;div&gt;&amp;nbsp; &amp;nbsp; 路径：/galaxy3/sdb_core_policy_sdb_policy_holder/realtime/TiDB/1476&lt;/div&gt;&lt;div&gt;&amp;nbsp; &amp;nbsp; 取值：&lt;/div&gt;&lt;div&gt;&lt;font style=&quot;font-size: 6px&quot;&gt;&lt;span style=&quot;color: rgb(74 , 85 , 96) ; font-family: &amp;#34;menlo&amp;#34; , monospace , &amp;#34;tahoma&amp;#34; , , ; background-color: rgb(255 , 255 , 255)&quot;&gt;{&lt;/span&gt;&lt;br style=&quot;box-sizing: border-box ; color: rgb(74 , 85 , 96) ; font-family: &amp;#34;menlo&amp;#34; , monospace , &amp;#34;tahoma&amp;#34; , , ; background-color: rgb(255 , 255 , 255)&quot;&gt;&lt;span style=&quot;color: rgb(74 , 85 , 96) ; font-family: &amp;#34;menlo&amp;#34; , monospace , &amp;#34;tahoma&amp;#34; , , ; background-color: rgb(255 , 255 , 255)&quot;&gt;&amp;nbsp;&amp;nbsp;&amp;nbsp;&amp;nbsp;&lt;/span&gt;&lt;span class=&quot;json_key&quot; style=&quot;box-sizing: border-box ; color: rgb(146 , 39 , 143) ; font-weight: bold ; font-family: &amp;#34;menlo&amp;#34; , monospace , &amp;#34;tahoma&amp;#34; , , ; background-color: rgb(255 , 255 , 255)&quot;&gt;&quot;clusterName&quot;&lt;/span&gt;&lt;span style=&quot;color: rgb(74 , 85 , 96) ; font-family: &amp;#34;menlo&amp;#34; , monospace , &amp;#34;tahoma&amp;#34; , , ; background-color: rgb(255 , 255 , 255)&quot;&gt;:&lt;/span&gt;&lt;span class=&quot;json_string&quot; style=&quot;box-sizing: border-box ; color: rgb(58 , 181 , 74) ; font-weight: bold ; font-family: &amp;#34;menlo&amp;#34; , monospace , &amp;#34;tahoma&amp;#34; , , ; background-color: rgb(255 , 255 , 255)&quot;&gt;&quot;TiDB-common&quot;&lt;/span&gt;&lt;span style=&quot;color: rgb(74 , 85 , 96) ; font-family: &amp;#34;menlo&amp;#34; , monospace , &amp;#34;tahoma&amp;#34; , , ; background-color: rgb(255 , 255 , 255)&quot;&gt;,&lt;/span&gt;&lt;br style=&quot;box-sizing: border-box ; color: rgb(74 , 85 , 96) ; font-family: &amp;#34;menlo&amp;#34; , monospace , &amp;#34;tahoma&amp;#34; , , ; background-color: rgb(255 , 255 , 255)&quot;&gt;&lt;span style=&quot;color: rgb(74 , 85 , 96) ; font-family: &amp;#34;menlo&amp;#34; , monospace , &amp;#34;tahoma&amp;#34; , , ; background-color: rgb(255 , 255 , 255)&quot;&gt;&amp;nbsp;&amp;nbsp;&amp;nbsp;&amp;nbsp;&lt;/span&gt;&lt;span class=&quot;json_key&quot; style=&quot;box-sizing: border-box ; color: rgb(146 , 39 , 143) ; font-weight: bold ; font-family: &amp;#34;menlo&amp;#34; , monospace , &amp;#34;tahoma&amp;#34; , , ; background-color: rgb(255 , 255 , 255)&quot;&gt;&quot;dbName&quot;&lt;/span&gt;&lt;span style=&quot;color: rgb(74 , 85 , 96) ; font-family: &amp;#34;menlo&amp;#34; , monospace , &amp;#34;tahoma&amp;#34; , , ; background-color: rgb(255 , 255 , 255)&quot;&gt;:&lt;/span&gt;&lt;span class=&quot;json_string&quot; style=&quot;box-sizing: border-box ; color: rgb(58 , 181 , 74) ; font-weight: bold ; font-family: &amp;#34;menlo&amp;#34; , monospace , &amp;#34;tahoma&amp;#34; , , ; background-color: rgb(255 , 255 , 255)&quot;&gt;&quot;sdb_core_policy1&quot;&lt;/span&gt;&lt;span style=&quot;color: rgb(74 , 85 , 96) ; font-family: &amp;#34;menlo&amp;#34; , monospace , &amp;#34;tahoma&amp;#34; , , ; background-color: rgb(255 , 255 , 255)&quot;&gt;,&lt;/span&gt;&lt;br style=&quot;box-sizing: border-box ; color: rgb(74 , 85 , 96) ; font-family: &amp;#34;menlo&amp;#34; , monospace , &amp;#34;tahoma&amp;#34; , , ; background-color: rgb(255 , 255 , 255)&quot;&gt;&lt;span style=&quot;color: rgb(74 , 85 , 96) ; font-family: &amp;#34;menlo&amp;#34; , monospace , &amp;#34;tahoma&amp;#34; , , ; background-color: rgb(255 , 255 , 255)&quot;&gt;&amp;nbsp;&amp;nbsp;&amp;nbsp;&amp;nbsp;&lt;/span&gt;&lt;span class=&quot;json_key&quot; style=&quot;box-sizing: border-box ; color: rgb(146 , 39 , 143) ; font-weight: bold ; font-family: &amp;#34;menlo&amp;#34; , monospace , &amp;#34;tahoma&amp;#34; , , ; background-color: rgb(255 , 255 , 255)&quot;&gt;&quot;groupId&quot;&lt;/span&gt;&lt;span style=&quot;color: rgb(74 , 85 , 96) ; font-family: &amp;#34;menlo&amp;#34; , monospace , &amp;#34;tahoma&amp;#34; , , ; background-color: rgb(255 , 255 , 255)&quot;&gt;:&lt;/span&gt;&lt;span class=&quot;json_string&quot; style=&quot;box-sizing: border-box ; color: rgb(58 , 181 , 74) ; font-weight: bold ; font-family: &amp;#34;menlo&amp;#34; , monospace , &amp;#34;tahoma&amp;#34; , , ; background-color: rgb(255 , 255 , 255)&quot;&gt;&quot;galaxy-sdb_core_policy_sdb_policy_holder-TiDB-realtime-1476&quot;&lt;/span&gt;&lt;span style=&quot;color: rgb(74 , 85 , 96) ; font-family: &amp;#34;menlo&amp;#34; , monospace , &amp;#34;tahoma&amp;#34; , , ; background-color: rgb(255 , 255 , 255)&quot;&gt;,&lt;/span&gt;&lt;br style=&quot;box-sizing: border-box ; color: rgb(74 , 85 , 96) ; font-family: &amp;#34;menlo&amp;#34; , monospace , &amp;#34;tahoma&amp;#34; , , ; background-color: rgb(255 , 255 , 255)&quot;&gt;&lt;span style=&quot;color: rgb(74 , 85 , 96) ; font-family: &amp;#34;menlo&amp;#34; , monospace , &amp;#34;tahoma&amp;#34; , , ; background-color: rgb(255 , 255 , 255)&quot;&gt;&amp;nbsp;&amp;nbsp;&amp;nbsp;&amp;nbsp;&lt;/span&gt;&lt;span class=&quot;json_key&quot; style=&quot;box-sizing: border-box ; color: rgb(146 , 39 , 143) ; font-weight: bold ; font-family: &amp;#34;menlo&amp;#34; , monospace , &amp;#34;tahoma&amp;#34; , , ; background-color: rgb(255 , 255 , 255)&quot;&gt;&quot;kfkTopic&quot;&lt;/span&gt;&lt;span style=&quot;color: rgb(74 , 85 , 96) ; font-family: &amp;#34;menlo&amp;#34; , monospace , &amp;#34;tahoma&amp;#34; , , ; background-color: rgb(255 , 255 , 255)&quot;&gt;:&lt;/span&gt;&lt;span class=&quot;json_string&quot; style=&quot;box-sizing: border-box ; color: rgb(58 , 181 , 74) ; font-weight: bold ; font-family: &amp;#34;menlo&amp;#34; , monospace , &amp;#34;tahoma&amp;#34; , , ; background-color: rgb(255 , 255 , 255)&quot;&gt;&quot;sdb_core_policy_sdb_policy_holder&quot;&lt;/span&gt;&lt;span style=&quot;color: rgb(74 , 85 , 96) ; font-family: &amp;#34;menlo&amp;#34; , monospace , &amp;#34;tahoma&amp;#34; , , ; background-color: rgb(255 , 255 , 255)&quot;&gt;,&lt;/span&gt;&lt;br style=&quot;box-sizing: border-box ; color: rgb(74 , 85 , 96) ; font-family: &amp;#34;menlo&amp;#34; , monospace , &amp;#34;tahoma&amp;#34; , , ; background-color: rgb(255 , 255 , 255)&quot;&gt;&lt;span style=&quot;color: rgb(74 , 85 , 96) ; font-family: &amp;#34;menlo&amp;#34; , monospace , &amp;#34;tahoma&amp;#34; , , ; background-color: rgb(255 , 255 , 255)&quot;&gt;&amp;nbsp;&amp;nbsp;&amp;nbsp;&amp;nbsp;&lt;/span&gt;&lt;span class=&quot;json_key&quot; style=&quot;box-sizing: border-box ; color: rgb(146 , 39 , 143) ; font-weight: bold ; font-family: &amp;#34;menlo&amp;#34; , monospace , &amp;#34;tahoma&amp;#34; , , ; background-color: rgb(255 , 255 , 255)&quot;&gt;&quot;source&quot;&lt;/span&gt;&lt;span style=&quot;color: rgb(74 , 85 , 96) ; font-family: &amp;#34;menlo&amp;#34; , monospace , &amp;#34;tahoma&amp;#34; , , ; background-color: rgb(255 , 255 , 255)&quot;&gt;:&lt;/span&gt;&lt;span style=&quot;box-sizing: border-box ; color: rgb(74 , 85 , 96) ; font-family: &amp;#34;menlo&amp;#34; , monospace , &amp;#34;tahoma&amp;#34; , , ; background-color: rgb(255 , 255 , 255)&quot;&gt;&lt;span class=&quot;fa fa-minus-square-o&quot; style=&quot;box-sizing: border-box ; display: inline-block ; font-stretch: normal ; line-height: 1 ; font-family: &amp;#34;fontawesome&amp;#34; ; cursor: pointer&quot;&gt;&lt;/span&gt;{&lt;br style=&quot;box-sizing: border-box&quot;&gt;&amp;nbsp;&amp;nbsp;&amp;nbsp;&amp;nbsp;&amp;nbsp;&amp;nbsp;&amp;nbsp;&amp;nbsp;&lt;span class=&quot;json_key&quot; style=&quot;box-sizing: border-box ; color: rgb(146 , 39 , 143) ; font-weight: bold&quot;&gt;&quot;fullTableSample&quot;&lt;/span&gt;:&lt;span class=&quot;json_string&quot; style=&quot;box-sizing: border-box ; color: rgb(58 , 181 , 74) ; font-weight: bold&quot;&gt;&quot;`sdb_core_policy1`.`sdb_policy_holder_0000`&quot;&lt;/span&gt;,&lt;br style=&quot;box-sizing: border-box&quot;&gt;&amp;nbsp;&amp;nbsp;&amp;nbsp;&amp;nbsp;&amp;nbsp;&amp;nbsp;&amp;nbsp;&amp;nbsp;&lt;span class=&quot;json_key&quot; style=&quot;box-sizing: border-box ; color: rgb(146 , 39 , 143) ; font-weight: bold&quot;&gt;&quot;password&quot;&lt;/span&gt;:&lt;span class=&quot;json_string&quot; style=&quot;box-sizing: border-box ; color: rgb(58 , 181 , 74) ; font-weight: bold&quot;&gt;&quot;***&quot;&lt;/span&gt;,&lt;br style=&quot;box-sizing: border-box&quot;&gt;&amp;nbsp;&amp;nbsp;&amp;nbsp;&amp;nbsp;&amp;nbsp;&amp;nbsp;&amp;nbsp;&amp;nbsp;&lt;span class=&quot;json_key&quot; style=&quot;box-sizing: border-box ; color: rgb(146 , 39 , 143) ; font-weight: bold&quot;&gt;&quot;updateColumn&quot;&lt;/span&gt;:&lt;span class=&quot;json_string&quot; style=&quot;box-sizing: border-box ; color: rgb(58 , 181 , 74) ; font-weight: bold&quot;&gt;&quot;update_time&quot;&lt;/span&gt;,&lt;br style=&quot;box-sizing: border-box&quot;&gt;&amp;nbsp;&amp;nbsp;&amp;nbsp;&amp;nbsp;&amp;nbsp;&amp;nbsp;&amp;nbsp;&amp;nbsp;&lt;span class=&quot;json_key&quot; style=&quot;box-sizing: border-box ; color: rgb(146 , 39 , 143) ; font-weight: bold&quot;&gt;&quot;url&quot;&lt;/span&gt;:&lt;span class=&quot;json_string&quot; style=&quot;box-sizing: border-box ; color: rgb(58 , 181 , 74) ; font-weight: bold&quot;&gt;&quot;***&quot;&lt;/span&gt;,&lt;br style=&quot;box-sizing: border-box&quot;&gt;&amp;nbsp;&amp;nbsp;&amp;nbsp;&amp;nbsp;&amp;nbsp;&amp;nbsp;&amp;nbsp;&amp;nbsp;&lt;span class=&quot;json_key&quot; style=&quot;box-sizing: border-box ; color: rgb(146 , 39 , 143) ; font-weight: bold&quot;&gt;&quot;username&quot;&lt;/span&gt;:&lt;span class=&quot;json_string&quot; style=&quot;box-sizing: border-box ; color: rgb(58 , 181 , 74) ; font-weight: bold&quot;&gt;&quot;test_canal_r&quot;&lt;/span&gt;&lt;br style=&quot;box-sizing: border-box&quot;&gt;&amp;nbsp;&amp;nbsp;&amp;nbsp;&amp;nbsp;}&lt;/span&gt;&lt;span style=&quot;color: rgb(74 , 85 , 96) ; font-family: &amp;#34;menlo&amp;#34; , monospace , &amp;#34;tahoma&amp;#34; , , ; background-color: rgb(255 , 255 , 255)&quot;&gt;,&lt;/span&gt;&lt;br style=&quot;box-sizing: border-box ; color: rgb(74 , 85 , 96) ; font-family: &amp;#34;menlo&amp;#34; , monospace , &amp;#34;tahoma&amp;#34; , , ; background-color: rgb(255 , 255 , 255)&quot;&gt;&lt;span style=&quot;color: rgb(74 , 85 , 96) ; font-family: &amp;#34;menlo&amp;#34; , monospace , &amp;#34;tahoma&amp;#34; , , ; background-color: rgb(255 , 255 , 255)&quot;&gt;&amp;nbsp;&amp;nbsp;&amp;nbsp;&amp;nbsp;&lt;/span&gt;&lt;span class=&quot;json_key&quot; style=&quot;box-sizing: border-box ; color: rgb(146 , 39 , 143) ; font-weight: bold ; font-family: &amp;#34;menlo&amp;#34; , monospace , &amp;#34;tahoma&amp;#34; , , ; background-color: rgb(255 , 255 , 255)&quot;&gt;&quot;table&quot;&lt;/span&gt;&lt;span style=&quot;color: rgb(74 , 85 , 96) ; font-family: &amp;#34;menlo&amp;#34; , monospace , &amp;#34;tahoma&amp;#34; , , ; background-color: rgb(255 , 255 , 255)&quot;&gt;:&lt;/span&gt;&lt;span class=&quot;json_string&quot; style=&quot;box-sizing: border-box ; color: rgb(58 , 181 , 74) ; font-weight: bold ; font-family: &amp;#34;menlo&amp;#34; , monospace , &amp;#34;tahoma&amp;#34; , , ; background-color: rgb(255 , 255 , 255)&quot;&gt;&quot;sdb_policy_holder_[0-9]{4}&quot;&lt;/span&gt;&lt;span style=&quot;color: rgb(74 , 85 , 96) ; font-family: &amp;#34;menlo&amp;#34; , monospace , &amp;#34;tahoma&amp;#34; , , ; background-color: rgb(255 , 255 , 255)&quot;&gt;,&lt;/span&gt;&lt;br style=&quot;box-sizing: border-box ; color: rgb(74 , 85 , 96) ; font-family: &amp;#34;menlo&amp;#34; , monospace , &amp;#34;tahoma&amp;#34; , , ; background-color: rgb(255 , 255 , 255)&quot;&gt;&lt;span style=&quot;color: rgb(74 , 85 , 96) ; font-family: &amp;#34;menlo&amp;#34; , monospace , &amp;#34;tahoma&amp;#34; , , ; background-color: rgb(255 , 255 , 255)&quot;&gt;&amp;nbsp;&amp;nbsp;&amp;nbsp;&amp;nbsp;&lt;/span&gt;&lt;span class=&quot;json_key&quot; style=&quot;box-sizing: border-box ; color: rgb(146 , 39 , 143) ; font-weight: bold ; font-family: &amp;#34;menlo&amp;#34; , monospace , &amp;#34;tahoma&amp;#34; , , ; background-color: rgb(255 , 255 , 255)&quot;&gt;&quot;tiDBName&quot;&lt;/span&gt;&lt;span style=&quot;color: rgb(74 , 85 , 96) ; font-family: &amp;#34;menlo&amp;#34; , monospace , &amp;#34;tahoma&amp;#34; , , ; background-color: rgb(255 , 255 , 255)&quot;&gt;:&lt;/span&gt;&lt;span class=&quot;json_string&quot; style=&quot;box-sizing: border-box ; color: rgb(58 , 181 , 74) ; font-weight: bold ; font-family: &amp;#34;menlo&amp;#34; , monospace , &amp;#34;tahoma&amp;#34; , , ; background-color: rgb(255 , 255 , 255)&quot;&gt;&quot;***&quot;&lt;/span&gt;&lt;span style=&quot;color: rgb(74 , 85 , 96) ; font-family: &amp;#34;menlo&amp;#34; , monospace , &amp;#34;tahoma&amp;#34; , , ; background-color: rgb(255 , 255 , 255)&quot;&gt;,&lt;/span&gt;&lt;br style=&quot;box-sizing: border-box ; color: rgb(74 , 85 , 96) ; font-family: &amp;#34;menlo&amp;#34; , monospace , &amp;#34;tahoma&amp;#34; , , ; background-color: rgb(255 , 255 , 255)&quot;&gt;&lt;span style=&quot;color: rgb(74 , 85 , 96) ; font-family: &amp;#34;menlo&amp;#34; , monospace , &amp;#34;tahoma&amp;#34; , , ; background-color: rgb(255 , 255 , 255)&quot;&gt;&amp;nbsp;&amp;nbsp;&amp;nbsp;&amp;nbsp;&lt;/span&gt;&lt;span class=&quot;json_key&quot; style=&quot;box-sizing: border-box ; color: rgb(146 , 39 , 143) ; font-weight: bold ; font-family: &amp;#34;menlo&amp;#34; , monospace , &amp;#34;tahoma&amp;#34; , , ; background-color: rgb(255 , 255 , 255)&quot;&gt;&quot;tiDBTableName&quot;&lt;/span&gt;&lt;span style=&quot;color: rgb(74 , 85 , 96) ; font-family: &amp;#34;menlo&amp;#34; , monospace , &amp;#34;tahoma&amp;#34; , , ; background-color: rgb(255 , 255 , 255)&quot;&gt;:&lt;/span&gt;&lt;span class=&quot;json_string&quot; style=&quot;box-sizing: border-box ; color: rgb(58 , 181 , 74) ; font-weight: bold ; font-family: &amp;#34;menlo&amp;#34; , monospace , &amp;#34;tahoma&amp;#34; , , ; background-color: rgb(255 , 255 , 255)&quot;&gt;&quot;***&quot;&lt;/span&gt;&lt;br style=&quot;box-sizing: border-box ; color: rgb(74 , 85 , 96) ; font-family: &amp;#34;menlo&amp;#34; , monospace , &amp;#34;tahoma&amp;#34; , , ; background-color: rgb(255 , 255 , 255)&quot;&gt;&lt;span style=&quot;color: rgb(74 , 85 , 96) ; font-family: &amp;#34;menlo&amp;#34; , monospace , &amp;#34;tahoma&amp;#34; , , ; background-color: rgb(255 , 255 , 255)&quot;&gt;}&lt;/span&gt;&lt;/font&gt;&lt;br&gt;&lt;/div&gt;" style="shape=note;whiteSpace=wrap;html=1;backgroundOutline=1;darkOpacity=0.05;align=left;fillColor=#ffff88;strokeColor=#36393d;" parent="1" vertex="1">
          <mxGeometry x="-245" y="420" width="505" height="730" as="geometry" />
        </mxCell>
        <mxCell id="rasIPgpJ51-KkkW6Vn-_-96" value="【库级别】&lt;br&gt;1. 实时同步数据时，由&amp;nbsp;&lt;span style=&quot;color: rgb(146 , 39 , 143) ; font-size: 6px ; font-weight: 700&quot;&gt;historyTaskRunning&lt;/span&gt;&amp;nbsp;= true 参数控制，将 delete 的增量数据，写入到 _sup；&lt;br&gt;2. 非delete的增量数据，实时消费写入es;&lt;br&gt;3. 当存量数据完成同步至es后，通过接口回调修改&amp;nbsp;&lt;span style=&quot;color: rgb(146 , 39 , 143) ; font-size: 6px ; font-weight: 700&quot;&gt;historyTaskRunning&lt;/span&gt;&amp;nbsp;= false，往 _sup 中发送结束标志：endFlag, 同时启动对 _del 的消费;&lt;br&gt;4. 当消费到 endFlag 标志时，关闭消费者，同时回调di接口，修改&amp;nbsp;&lt;span style=&quot;color: rgb(146 , 39 , 143) ; font-size: 6px ; font-weight: 700&quot;&gt;closeSupConsumer&lt;/span&gt;&lt;span style=&quot;color: rgb(146 , 39 , 143) ; font-size: 6px ; font-weight: 700 ; background-color: rgb(255 , 255 , 255)&quot;&gt;&amp;nbsp;= true&lt;br&gt;&lt;br&gt;【表级别】&lt;br&gt;&lt;br&gt;存量数据导入完成后，自动重置offset后，往zk中新增节点，启动消费，任务完成&lt;br&gt;&lt;/span&gt;" style="shape=note;whiteSpace=wrap;html=1;backgroundOutline=1;darkOpacity=0.05;align=left;fillColor=#ffff88;strokeColor=#36393d;" parent="1" vertex="1">
          <mxGeometry x="1880" y="570" width="520" height="165" as="geometry" />
        </mxCell>
        <mxCell id="rasIPgpJ51-KkkW6Vn-_-97" value="&lt;b&gt;线上zk地址&lt;/b&gt;：&amp;nbsp;10.101.***:2181&lt;br&gt;&lt;b&gt;测试zk地址&lt;/b&gt;：10.22.***:2181" style="rounded=1;whiteSpace=wrap;html=1;strokeColor=#6c8ebf;fillColor=#dae8fc;" parent="1" vertex="1">
          <mxGeometry x="900" y="-100" width="420" height="60" as="geometry" />
        </mxCell>
        <mxCell id="rasIPgpJ51-KkkW6Vn-_-98" value="" style="endArrow=classic;html=1;dashed=1;strokeColor=#000000;exitX=0.875;exitY=0.5;exitDx=0;exitDy=0;exitPerimeter=0;entryX=0.25;entryY=1;entryDx=0;entryDy=0;" parent="1" source="rasIPgpJ51-KkkW6Vn-_-71" target="rasIPgpJ51-KkkW6Vn-_-97" edge="1">
          <mxGeometry width="50" height="50" relative="1" as="geometry">
            <mxPoint x="850" y="180" as="sourcePoint" />
            <mxPoint x="900" y="130" as="targetPoint" />
          </mxGeometry>
        </mxCell>
        <mxCell id="rasIPgpJ51-KkkW6Vn-_-99" value="" style="endArrow=classic;html=1;dashed=1;strokeColor=#000000;exitX=0.4;exitY=0.1;exitDx=0;exitDy=0;exitPerimeter=0;entryX=0.75;entryY=1;entryDx=0;entryDy=0;" parent="1" source="rasIPgpJ51-KkkW6Vn-_-90" target="rasIPgpJ51-KkkW6Vn-_-97" edge="1">
          <mxGeometry width="50" height="50" relative="1" as="geometry">
            <mxPoint x="860" y="190" as="sourcePoint" />
            <mxPoint x="1160" y="65" as="targetPoint" />
          </mxGeometry>
        </mxCell>
      </root>
    </mxGraphModel>
  </diagram>
</mxfile>
